<svg width="426" height="452" viewBox="0 0 426 452" fill="none" xmlns="http://www.w3.org/2000/svg">
<g clip-path="url(#clip0_104_809)">
<path d="M131.55 331.576H78.1888C76.8435 331.576 75.7489 330.387 75.7489 328.925C75.7489 327.463 76.8435 326.274 78.1888 326.274H131.55C132.896 326.274 133.99 327.463 133.99 328.925C133.99 330.387 132.896 331.576 131.55 331.576Z" fill="#0888A8"/>
<path d="M36.2491 345.768C36.2491 346.244 36.6011 346.627 37.0394 346.627H172.699C173.138 346.627 173.49 346.244 173.49 345.768C173.49 345.292 173.138 344.909 172.699 344.909H37.0394C36.6011 344.909 36.2491 345.292 36.2491 345.768Z" fill="#3F3D56"/>
<path d="M322.47 172.752C346.309 172.752 365.634 151.752 365.634 125.848C365.634 99.9441 346.309 78.9447 322.47 78.9447C298.631 78.9447 279.306 99.9441 279.306 125.848C279.306 151.752 298.631 172.752 322.47 172.752Z" fill="#0888A8"/>
<path d="M0 405.037C0 405.513 0.351969 405.895 0.790266 405.895H347.62C348.058 405.895 348.41 405.513 348.41 405.037C348.41 404.56 348.058 404.178 347.62 404.178H0.790266C0.351969 404.178 0 404.56 0 405.037Z" fill="#3F3D56"/>
<path d="M5.01682 347.048L3.90735 345.727L112.191 238.357L151.203 257.361L193.331 178.856L227.943 160.727L260.012 218.806C277.326 170.099 320.746 119.141 372.775 67.4398L374.055 68.5659C325.257 119.333 283.506 170.331 259.811 221.919L230.148 168.04C228.747 165.495 225.802 164.511 223.328 165.763C204.408 175.329 188.628 190.943 178.096 210.518L151.706 259.566L145.683 256.631C125.536 246.818 101.952 250.931 85.6432 267.102L5.01682 347.048Z" fill="#3F3D56"/>
<path d="M375.217 77.2149L373.573 77.339L370.92 71.0918L364.981 69.7808L364.75 68.0077L374.54 66.4958L375.217 77.2149Z" fill="#3F3D56"/>
<path d="M206.312 115.441L212.132 91.1249L234.808 89.9397L241.592 123.458L206.312 115.441Z" fill="#FFB6B6"/>
<path opacity="0.1" d="M206.312 115.441L212.132 91.1249L234.808 89.9397L241.592 123.458L206.312 115.441Z" fill="black"/>
<g filter="url(#filter0_d_104_809)">
<path d="M221.233 104.733C236.349 104.733 248.602 91.4169 248.602 74.9911C248.602 58.5654 236.349 45.2498 221.233 45.2498C206.117 45.2498 193.863 58.5654 193.863 74.9911C193.863 91.4169 206.117 104.733 221.233 104.733Z" fill="#FFB6B6"/>
</g>
<g filter="url(#filter1_d_104_809)">
<path d="M236.334 81.2865C236.334 81.2865 225.936 58.9009 213.754 60.1933C201.572 61.4857 195.154 63.0575 195.154 63.0575C195.154 63.0575 191.538 45.6225 208.563 38.9162C208.563 38.9162 186.916 15.7286 212.688 4.35405C238.461 -7.0205 252.883 7.48629 252.883 7.48629C252.883 7.48629 271.96 28.1812 247.933 43.6487C247.933 43.6487 265.774 69.7262 244.173 91.22C244.173 91.22 249.004 73.8268 243.963 77.0344C238.922 80.242 236.334 81.2865 236.334 81.2865Z" fill="#2F2E41"/>
</g>
<path d="M191.035 238.423L187.394 242.215L161.092 303.496L158.213 404.86H202.403L223.133 354.663L237.099 404.375H276.832L286.043 314.133L261.283 250.311L191.035 238.423Z" fill="#2F2E41"/>
<g filter="url(#filter2_d_104_809)">
<path d="M236.811 112.97H207.3L175.2 131.741L182.685 168.031C182.685 168.031 180.958 189.931 184.988 206.199C189.019 222.467 187.292 243.741 187.292 243.741L261.283 250.311L263.586 176.478L262.435 127.048L236.811 112.97Z" fill="#F50057"/>
</g>
<g filter="url(#filter3_d_104_809)">
<path d="M180.094 132.054C180.094 132.054 162.244 132.679 159.365 145.193C156.486 157.707 154.183 222.155 154.183 222.155C154.183 222.155 155.91 260.396 175.2 242.214C194.489 224.032 192.762 168.97 192.762 168.97L180.094 132.054Z" fill="#F50057"/>
</g>
<path d="M353.229 451.278H248.037C244.474 451.278 241.576 448.129 241.576 444.258V326.091C241.576 322.219 244.474 319.07 248.037 319.07H353.229C356.792 319.07 359.69 322.219 359.69 326.091V444.258C359.69 448.129 356.792 451.278 353.229 451.278Z" fill="white"/>
<g filter="url(#filter4_d_104_809)">
<path d="M353.229 452H248.037C244.108 452 240.912 448.527 240.912 444.258V326.091C240.912 321.822 244.108 318.349 248.037 318.349H353.229C357.158 318.349 360.354 321.822 360.354 326.091V444.258C360.354 448.527 357.158 452 353.229 452ZM248.037 319.792C244.84 319.792 242.24 322.617 242.24 326.091V444.258C242.24 447.731 244.84 450.557 248.037 450.557H353.229C356.425 450.557 359.026 447.731 359.026 444.258V326.091C359.026 322.617 356.425 319.792 353.229 319.792H248.037Z" fill="#3F3D56"/>
</g>
<path d="M304.784 420.235H296.114C295.059 420.235 294.2 419.515 294.2 418.629V378.067C294.2 377.182 295.059 376.462 296.114 376.462H304.784C305.84 376.462 306.698 377.182 306.698 378.067V418.629C306.698 419.515 305.84 420.235 304.784 420.235Z" fill="#0888A8"/>
<path d="M276.12 396.331C275.268 396.331 274.574 396.913 274.574 397.629V418.584C274.574 419.299 275.268 419.881 276.12 419.881H284.79C285.643 419.881 286.337 419.299 286.337 418.584V397.629C286.337 396.913 285.643 396.331 284.79 396.331H276.12Z" fill="#0888A8"/>
<path d="M324.778 420.235H316.108C315.052 420.235 314.193 419.514 314.193 418.629V352.155C314.193 351.27 315.052 350.55 316.108 350.55H324.778C325.833 350.55 326.692 351.27 326.692 352.155V418.629C326.692 419.514 325.833 420.235 324.778 420.235Z" fill="#0888A8"/>
<path d="M138.206 128.856H128.303C127.097 128.856 126.116 128.034 126.116 127.022V80.6889C126.116 79.6775 127.097 78.8547 128.303 78.8547H138.206C139.412 78.8547 140.393 79.6775 140.393 80.6889V127.022C140.393 128.034 139.412 128.856 138.206 128.856Z" fill="#0888A8"/>
<path d="M105.464 101.552C104.49 101.552 103.698 102.217 103.698 103.034V126.97C103.698 127.787 104.49 128.452 105.464 128.452H115.368C116.342 128.452 117.135 127.787 117.135 126.97V103.034C117.135 102.217 116.342 101.552 115.368 101.552H105.464Z" fill="#0888A8"/>
<path d="M161.045 128.856H151.141C149.935 128.856 148.955 128.034 148.955 127.022V51.0903C148.955 50.0789 149.935 49.2561 151.141 49.2561H161.045C162.251 49.2561 163.232 50.0788 163.232 51.0903V127.022C163.232 128.034 162.251 128.856 161.045 128.856Z" fill="#0888A8"/>
<path d="M284.506 336.263C289.636 335.729 293.168 328.197 292.396 319.435C292.132 315.931 291.1 312.546 289.385 309.564L288.396 299.648L288.548 299.598L291.033 252.581C291.611 241.649 287.628 230.907 279.955 223.808C275.391 219.585 270.522 217.447 267.391 222.782C262.196 231.636 268.925 268.132 273.344 288.881L275.058 311.054C273.894 314.337 273.47 317.874 273.823 321.37C274.593 330.129 279.377 336.797 284.506 336.263Z" fill="#FFB6B6"/>
<g filter="url(#filter5_d_104_809)">
<path d="M256.101 128.299C256.101 128.299 271.072 122.042 277.982 140.813C284.892 159.584 292.377 252.188 292.377 252.188L257.253 245.306L256.101 128.299Z" fill="#F50057"/>
</g>
<path d="M50.5293 119.118H30.3705C29.0252 119.118 27.9305 117.929 27.9305 116.467C27.9305 115.005 29.0252 113.816 30.3705 113.816H50.5293C51.8745 113.816 52.9687 115.005 52.9687 116.467C52.9687 117.929 51.8745 119.118 50.5293 119.118Z" fill="#E6E6E6"/>
<path d="M50.5293 81.538H30.3705C29.0252 81.538 27.9305 80.3485 27.9305 78.8866C27.9305 77.4248 29.0252 76.2358 30.3705 76.2358H50.5293C51.8745 76.2358 52.9687 77.4248 52.9687 78.8866C52.9687 80.3485 51.8745 81.538 50.5293 81.538Z" fill="#E6E6E6"/>
<path d="M50.5293 54.437H30.3705C29.0252 54.437 27.9305 53.2475 27.9305 51.7857C27.9305 50.3238 29.0252 49.1349 30.3705 49.1349H50.5293C51.8745 49.1349 52.9687 50.3238 52.9687 51.7857C52.9687 53.2475 51.8745 54.437 50.5293 54.437Z" fill="#E6E6E6"/>
<path d="M27.1218 128.987C27.1218 129.464 27.4738 129.846 27.9121 129.846H163.572C164.01 129.846 164.362 129.464 164.362 128.987C164.362 128.511 164.01 128.129 163.572 128.129H27.9121C27.4738 128.129 27.1218 128.511 27.1218 128.987Z" fill="#3F3D56"/>
<path d="M288.76 351.238C288.76 351.714 289.112 352.097 289.55 352.097H425.21C425.648 352.097 426 351.714 426 351.238C426 350.762 425.648 350.38 425.21 350.38H289.55C289.112 350.38 288.76 350.762 288.76 351.238Z" fill="#3F3D56"/>
<path d="M248.916 421.233C248.916 421.709 249.268 422.092 249.707 422.092H385.366C385.805 422.092 386.157 421.709 386.157 421.233C386.157 420.757 385.805 420.374 385.366 420.374H249.707C249.268 420.374 248.916 420.757 248.916 421.233Z" fill="#3F3D56"/>
<g filter="url(#filter6_d_104_809)">
<path d="M157.691 124.646C152.562 125.18 149.029 132.712 149.801 141.474C150.065 144.978 151.098 148.363 152.813 151.345L153.801 161.261L153.65 161.311L151.165 208.328C150.587 219.261 154.569 230.003 162.242 237.102C166.806 241.325 171.675 243.463 174.807 238.127C180.002 229.273 173.272 192.777 168.853 172.028L167.14 149.855C168.304 146.573 168.727 143.035 168.375 139.539C167.604 130.78 162.821 124.113 157.691 124.646Z" fill="#FFB6B6"/>
</g>
</g>
<defs>
<filter id="filter0_d_104_809" x="189.863" y="45.2498" width="62.7397" height="67.4828" filterUnits="userSpaceOnUse" color-interpolation-filters="sRGB">
<feFlood flood-opacity="0" result="BackgroundImageFix"/>
<feColorMatrix in="SourceAlpha" type="matrix" values="0 0 0 0 0 0 0 0 0 0 0 0 0 0 0 0 0 0 127 0" result="hardAlpha"/>
<feOffset dy="4"/>
<feGaussianBlur stdDeviation="2"/>
<feComposite in2="hardAlpha" operator="out"/>
<feColorMatrix type="matrix" values="0 0 0 0 0 0 0 0 0 0 0 0 0 0 0 0 0 0 0.25 0"/>
<feBlend mode="normal" in2="BackgroundImageFix" result="effect1_dropShadow_104_809"/>
<feBlend mode="normal" in="SourceGraphic" in2="effect1_dropShadow_104_809" result="shape"/>
</filter>
<filter id="filter1_d_104_809" x="190.832" y="0" width="73.2329" height="99.22" filterUnits="userSpaceOnUse" color-interpolation-filters="sRGB">
<feFlood flood-opacity="0" result="BackgroundImageFix"/>
<feColorMatrix in="SourceAlpha" type="matrix" values="0 0 0 0 0 0 0 0 0 0 0 0 0 0 0 0 0 0 127 0" result="hardAlpha"/>
<feOffset dy="4"/>
<feGaussianBlur stdDeviation="2"/>
<feComposite in2="hardAlpha" operator="out"/>
<feColorMatrix type="matrix" values="0 0 0 0 0 0 0 0 0 0 0 0 0 0 0 0 0 0 0.25 0"/>
<feBlend mode="normal" in2="BackgroundImageFix" result="effect1_dropShadow_104_809"/>
<feBlend mode="normal" in="SourceGraphic" in2="effect1_dropShadow_104_809" result="shape"/>
</filter>
<filter id="filter2_d_104_809" x="171.2" y="112.97" width="96.3868" height="145.341" filterUnits="userSpaceOnUse" color-interpolation-filters="sRGB">
<feFlood flood-opacity="0" result="BackgroundImageFix"/>
<feColorMatrix in="SourceAlpha" type="matrix" values="0 0 0 0 0 0 0 0 0 0 0 0 0 0 0 0 0 0 127 0" result="hardAlpha"/>
<feOffset dy="4"/>
<feGaussianBlur stdDeviation="2"/>
<feComposite in2="hardAlpha" operator="out"/>
<feColorMatrix type="matrix" values="0 0 0 0 0 0 0 0 0 0 0 0 0 0 0 0 0 0 0.25 0"/>
<feBlend mode="normal" in2="BackgroundImageFix" result="effect1_dropShadow_104_809"/>
<feBlend mode="normal" in="SourceGraphic" in2="effect1_dropShadow_104_809" result="shape"/>
</filter>
<filter id="filter3_d_104_809" x="150.183" y="132.054" width="46.6191" height="123.063" filterUnits="userSpaceOnUse" color-interpolation-filters="sRGB">
<feFlood flood-opacity="0" result="BackgroundImageFix"/>
<feColorMatrix in="SourceAlpha" type="matrix" values="0 0 0 0 0 0 0 0 0 0 0 0 0 0 0 0 0 0 127 0" result="hardAlpha"/>
<feOffset dy="4"/>
<feGaussianBlur stdDeviation="2"/>
<feComposite in2="hardAlpha" operator="out"/>
<feColorMatrix type="matrix" values="0 0 0 0 0 0 0 0 0 0 0 0 0 0 0 0 0 0 0.25 0"/>
<feBlend mode="normal" in2="BackgroundImageFix" result="effect1_dropShadow_104_809"/>
<feBlend mode="normal" in="SourceGraphic" in2="effect1_dropShadow_104_809" result="shape"/>
</filter>
<filter id="filter4_d_104_809" x="236.912" y="318.349" width="127.442" height="141.651" filterUnits="userSpaceOnUse" color-interpolation-filters="sRGB">
<feFlood flood-opacity="0" result="BackgroundImageFix"/>
<feColorMatrix in="SourceAlpha" type="matrix" values="0 0 0 0 0 0 0 0 0 0 0 0 0 0 0 0 0 0 127 0" result="hardAlpha"/>
<feOffset dy="4"/>
<feGaussianBlur stdDeviation="2"/>
<feComposite in2="hardAlpha" operator="out"/>
<feColorMatrix type="matrix" values="0 0 0 0 0 0 0 0 0 0 0 0 0 0 0 0 0 0 0.25 0"/>
<feBlend mode="normal" in2="BackgroundImageFix" result="effect1_dropShadow_104_809"/>
<feBlend mode="normal" in="SourceGraphic" in2="effect1_dropShadow_104_809" result="shape"/>
</filter>
<filter id="filter5_d_104_809" x="252.101" y="127.298" width="44.276" height="132.89" filterUnits="userSpaceOnUse" color-interpolation-filters="sRGB">
<feFlood flood-opacity="0" result="BackgroundImageFix"/>
<feColorMatrix in="SourceAlpha" type="matrix" values="0 0 0 0 0 0 0 0 0 0 0 0 0 0 0 0 0 0 127 0" result="hardAlpha"/>
<feOffset dy="4"/>
<feGaussianBlur stdDeviation="2"/>
<feComposite in2="hardAlpha" operator="out"/>
<feColorMatrix type="matrix" values="0 0 0 0 0 0 0 0 0 0 0 0 0 0 0 0 0 0 0.25 0"/>
<feBlend mode="normal" in2="BackgroundImageFix" result="effect1_dropShadow_104_809"/>
<feBlend mode="normal" in="SourceGraphic" in2="effect1_dropShadow_104_809" result="shape"/>
</filter>
<filter id="filter6_d_104_809" x="145.695" y="124.616" width="34.9956" height="124.678" filterUnits="userSpaceOnUse" color-interpolation-filters="sRGB">
<feFlood flood-opacity="0" result="BackgroundImageFix"/>
<feColorMatrix in="SourceAlpha" type="matrix" values="0 0 0 0 0 0 0 0 0 0 0 0 0 0 0 0 0 0 127 0" result="hardAlpha"/>
<feOffset dy="4"/>
<feGaussianBlur stdDeviation="2"/>
<feComposite in2="hardAlpha" operator="out"/>
<feColorMatrix type="matrix" values="0 0 0 0 0 0 0 0 0 0 0 0 0 0 0 0 0 0 0.25 0"/>
<feBlend mode="normal" in2="BackgroundImageFix" result="effect1_dropShadow_104_809"/>
<feBlend mode="normal" in="SourceGraphic" in2="effect1_dropShadow_104_809" result="shape"/>
</filter>
<clipPath id="clip0_104_809">
<rect width="426" height="452" fill="white"/>
</clipPath>
</defs>
</svg>
