<svg width="402" height="396" viewBox="0 0 402 396" fill="none" xmlns="http://www.w3.org/2000/svg">
<path d="M212.326 372.945C212.341 372.947 212.353 372.952 212.37 372.956C212.408 372.97 212.445 372.968 212.485 372.98C212.532 372.993 212.578 372.997 212.622 373.008C212.802 373.053 212.978 373.105 213.162 373.121C213.267 373.131 213.372 373.112 213.477 373.11C213.571 373.108 213.661 373.111 213.758 373.098C213.843 373.09 213.927 373.096 214.011 373.079C214.138 373.057 214.259 373.005 214.386 372.966C214.52 372.923 214.657 372.903 214.788 372.843C214.805 372.835 214.819 372.821 214.839 372.81C214.856 372.802 214.877 372.801 214.896 372.79L283.081 338.926C284.081 338.429 284.76 337.459 284.885 336.349L293.381 260.702C293.395 260.568 293.374 260.445 293.373 260.308C293.371 260.215 293.376 260.122 293.364 260.025C293.329 259.641 293.238 259.269 293.074 258.926C293.067 258.913 293.069 258.894 293.064 258.878C293.04 258.838 293.005 258.813 292.979 258.771C292.822 258.481 292.617 258.221 292.376 257.988C292.3 257.919 292.234 257.849 292.154 257.785C292.102 257.74 292.062 257.688 292.006 257.649L233.919 216.976L250.705 67.6036C250.717 67.472 250.695 67.3488 250.697 67.2142C250.692 67.1186 250.697 67.026 250.687 66.9266C250.652 66.5421 250.562 66.1745 250.398 65.8317C250.391 65.8142 250.395 65.7971 250.385 65.7823C250.365 65.7364 250.324 65.7155 250.299 65.6704C250.141 65.3831 249.938 65.1249 249.697 64.8922C249.626 64.8225 249.555 64.7527 249.476 64.6891C249.423 64.6443 249.385 64.5898 249.329 64.5504L189.659 22.7693C188.678 22.0819 187.4 21.9882 186.324 22.5201L118.139 56.3965C117.984 56.4759 117.859 56.5804 117.72 56.6756C117.641 56.732 117.55 56.7764 117.476 56.8411C117.261 57.0228 117.069 57.2286 116.911 57.4543C116.751 57.6827 116.621 57.9363 116.524 58.2006C116.521 58.206 116.515 58.214 116.512 58.224C116.48 58.3096 116.471 58.4077 116.449 58.4963C116.409 58.6564 116.351 58.8079 116.333 58.9757L90.8131 285.922C90.6831 287.113 91.2062 288.284 92.1878 288.971L211.554 372.552C211.796 372.714 212.055 372.847 212.326 372.945ZM114.562 133.41L122.235 65.19L175.789 102.689L168.127 170.917L114.562 133.41ZM106.055 209.049L113.729 140.834L167.294 178.341L159.631 246.564L106.055 209.049ZM97.5499 284.71L105.222 216.474L158.8 253.99L151.121 322.225L97.5499 284.71ZM157.233 326.5L164.91 258.268L218.475 295.774L210.796 364.01L157.233 326.5Z" fill="#0888A8"/>
<path d="M157.233 326.5L164.91 258.268L218.475 295.774L210.796 364.01L157.233 326.5Z" fill="#0888A8"/>
<path d="M97.5499 284.71L105.222 216.474L158.8 253.99L151.121 322.225L97.5499 284.71Z" fill="#0888A8"/>
<path d="M106.055 209.049L113.729 140.834L167.294 178.341L159.631 246.564L106.055 209.049Z" fill="#0888A8"/>
<path d="M114.562 133.41L122.235 65.19L175.789 102.689L168.127 170.917L114.562 133.41Z" fill="#0888A8"/>
<path d="M212.326 372.945C212.341 372.947 212.353 372.952 212.37 372.956C212.408 372.97 212.445 372.968 212.485 372.98C212.532 372.993 212.578 372.997 212.622 373.008C212.802 373.053 212.978 373.105 213.162 373.121C213.267 373.131 213.372 373.112 213.477 373.11C213.571 373.108 213.661 373.111 213.758 373.098C213.843 373.09 213.927 373.096 214.011 373.079C214.138 373.057 214.259 373.005 214.386 372.966C214.52 372.923 214.657 372.903 214.788 372.843C214.805 372.835 214.819 372.821 214.839 372.81C214.856 372.802 214.877 372.801 214.896 372.79L283.081 338.926C284.081 338.429 284.76 337.459 284.885 336.349L293.381 260.702C293.395 260.568 293.374 260.445 293.373 260.308C293.371 260.215 293.376 260.122 293.364 260.025C293.329 259.641 293.238 259.269 293.074 258.926C293.067 258.913 293.069 258.894 293.064 258.878C293.04 258.838 293.005 258.813 292.979 258.771C292.822 258.481 292.617 258.221 292.376 257.988C292.3 257.919 292.234 257.849 292.154 257.785C292.102 257.74 292.062 257.688 292.006 257.649L233.919 216.976L250.705 67.6036C250.717 67.472 250.695 67.3488 250.697 67.2142C250.692 67.1186 250.697 67.026 250.687 66.9266C250.652 66.5421 250.562 66.1745 250.398 65.8317C250.391 65.8142 250.395 65.7971 250.385 65.7823C250.365 65.7364 250.324 65.7155 250.299 65.6704C250.141 65.3831 249.938 65.1249 249.697 64.8922C249.626 64.8225 249.555 64.7527 249.476 64.6891C249.423 64.6443 249.385 64.5898 249.329 64.5504L189.659 22.7693C188.678 22.0819 187.4 21.9882 186.324 22.5201L118.139 56.3965C117.984 56.4759 117.859 56.5804 117.72 56.6756C117.641 56.732 117.55 56.7764 117.476 56.8411C117.261 57.0228 117.069 57.2286 116.911 57.4543C116.751 57.6827 116.621 57.9363 116.524 58.2006C116.521 58.206 116.515 58.214 116.512 58.224C116.48 58.3096 116.471 58.4077 116.449 58.4963C116.409 58.6564 116.351 58.8079 116.333 58.9757L90.8131 285.922C90.6831 287.113 91.2062 288.284 92.1878 288.971L211.554 372.552C211.796 372.714 212.055 372.847 212.326 372.945ZM114.562 133.41L122.235 65.19L175.789 102.689L168.127 170.917L114.562 133.41ZM106.055 209.049L113.729 140.834L167.294 178.341L159.631 246.564L106.055 209.049ZM97.5499 284.71L105.222 216.474L158.8 253.99L151.121 322.225L97.5499 284.71ZM157.233 326.5L164.91 258.268L218.475 295.774L210.796 364.01L157.233 326.5Z" fill="black"/>
</svg>
