<svg width="68" height="69" viewBox="0 0 68 69" fill="none" xmlns="http://www.w3.org/2000/svg">
<path d="M24.9538 59.8937C24.9555 59.894 24.9569 59.8945 24.9589 59.895C24.9632 59.8966 24.9675 59.8963 24.9721 59.8977C24.9775 59.8991 24.9827 59.8995 24.9878 59.9007C25.0085 59.9058 25.0287 59.9116 25.0499 59.9133C25.062 59.9143 25.0742 59.912 25.0863 59.9117C25.0971 59.9113 25.1075 59.9115 25.1186 59.91C25.1285 59.9089 25.1381 59.9096 25.1478 59.9075C25.1626 59.9047 25.1765 59.8986 25.1912 59.8939C25.2067 59.8888 25.2226 59.8864 25.2377 59.8792C25.2397 59.8782 25.2413 59.8766 25.2436 59.8753C25.2456 59.8744 25.248 59.8742 25.2502 59.873L33.1478 55.8667C33.2636 55.8079 33.3429 55.6945 33.3586 55.5656L34.4215 46.7751C34.4233 46.7594 34.4209 46.7452 34.421 46.7293C34.4209 46.7185 34.4215 46.7077 34.4202 46.6965C34.4167 46.6519 34.4066 46.6088 34.3881 46.5692C34.3873 46.5677 34.3875 46.5655 34.3869 46.5637C34.3842 46.559 34.3803 46.5562 34.3773 46.5513C34.3595 46.5178 34.3361 46.4879 34.3086 46.4611C34.3 46.4532 34.2924 46.4451 34.2833 46.4378C34.2773 46.4326 34.2728 46.4267 34.2663 46.4221L27.6151 41.7649L29.7151 24.4071C29.7166 24.3918 29.7143 24.3776 29.7147 24.3619C29.7142 24.3508 29.7149 24.3401 29.7138 24.3286C29.7103 24.284 29.7002 24.2414 29.6818 24.2018C29.6809 24.1998 29.6814 24.1978 29.6803 24.1961C29.678 24.1907 29.6733 24.1884 29.6705 24.1832C29.6526 24.15 29.6295 24.1202 29.602 24.0935C29.5938 24.0855 29.5857 24.0775 29.5766 24.0702C29.5706 24.065 29.5663 24.0587 29.5599 24.0542L22.7275 19.2701C22.6151 19.1914 22.4679 19.182 22.3433 19.2449L14.4458 23.2526C14.4277 23.262 14.4132 23.2742 14.3971 23.2854C14.3879 23.2921 14.3773 23.2973 14.3688 23.3049C14.3438 23.3262 14.3214 23.3503 14.303 23.3767C14.2843 23.4034 14.2691 23.433 14.2576 23.4638C14.2571 23.4644 14.2565 23.4653 14.2561 23.4665C14.2524 23.4765 14.2512 23.4879 14.2486 23.4982C14.2438 23.5168 14.2369 23.5345 14.2347 23.554L11.0422 49.9263C11.0259 50.0646 11.0849 50.2 11.1973 50.2787L24.8652 59.849C24.893 59.8675 24.9226 59.8827 24.9538 59.8937ZM13.9484 32.1963L14.9082 24.2688L21.0403 28.5626L20.0818 36.4909L13.9484 32.1963ZM12.8842 40.986L13.8441 33.059L19.9775 37.3537L19.0188 45.2815L12.8842 40.986ZM11.8202 49.7781L12.7799 41.8487L18.9148 46.1444L17.9543 54.0737L11.8202 49.7781ZM18.6541 54.5633L19.6145 46.6343L25.7479 50.929L24.7873 58.8582L18.6541 54.5633Z" fill="#0888A8"/>
<path d="M18.6541 54.5633L19.6145 46.6343L25.7479 50.929L24.7873 58.8582L18.6541 54.5633Z" fill="#0888A8"/>
<path d="M11.8202 49.7781L12.7799 41.8487L18.9148 46.1444L17.9543 54.0737L11.8202 49.7781Z" fill="#0888A8"/>
<path d="M12.8842 40.986L13.8441 33.059L19.9775 37.3537L19.0188 45.2815L12.8842 40.986Z" fill="#0888A8"/>
<path d="M13.9484 32.1963L14.9082 24.2688L21.0403 28.5626L20.0818 36.4909L13.9484 32.1963Z" fill="#0888A8"/>
<path d="M24.9538 59.8937C24.9555 59.894 24.9569 59.8945 24.9589 59.895C24.9632 59.8966 24.9675 59.8963 24.9721 59.8977C24.9775 59.8991 24.9827 59.8995 24.9878 59.9007C25.0085 59.9058 25.0287 59.9116 25.0499 59.9133C25.062 59.9143 25.0742 59.912 25.0863 59.9117C25.0971 59.9113 25.1075 59.9115 25.1186 59.91C25.1285 59.9089 25.1381 59.9096 25.1478 59.9075C25.1626 59.9047 25.1765 59.8986 25.1912 59.8939C25.2067 59.8888 25.2226 59.8864 25.2377 59.8792C25.2397 59.8782 25.2413 59.8766 25.2436 59.8753C25.2456 59.8744 25.248 59.8742 25.2502 59.873L33.1478 55.8667C33.2636 55.8079 33.3429 55.6945 33.3586 55.5656L34.4215 46.7751C34.4233 46.7594 34.4209 46.7452 34.421 46.7293C34.4209 46.7185 34.4215 46.7077 34.4202 46.6965C34.4167 46.6519 34.4066 46.6088 34.3881 46.5692C34.3873 46.5677 34.3875 46.5655 34.3869 46.5637C34.3842 46.559 34.3803 46.5562 34.3773 46.5513C34.3595 46.5178 34.3361 46.4879 34.3086 46.4611C34.3 46.4532 34.2924 46.4451 34.2833 46.4378C34.2773 46.4326 34.2728 46.4267 34.2663 46.4221L27.6151 41.7649L29.7151 24.4071C29.7166 24.3918 29.7143 24.3776 29.7147 24.3619C29.7142 24.3508 29.7149 24.3401 29.7138 24.3286C29.7103 24.284 29.7002 24.2414 29.6818 24.2018C29.6809 24.1998 29.6814 24.1978 29.6803 24.1961C29.678 24.1907 29.6733 24.1884 29.6705 24.1832C29.6526 24.15 29.6295 24.1202 29.602 24.0935C29.5938 24.0855 29.5857 24.0775 29.5766 24.0702C29.5706 24.065 29.5663 24.0587 29.5599 24.0542L22.7275 19.2701C22.6151 19.1914 22.4679 19.182 22.3433 19.2449L14.4458 23.2526C14.4277 23.262 14.4132 23.2742 14.3971 23.2854C14.3879 23.2921 14.3773 23.2973 14.3688 23.3049C14.3438 23.3262 14.3214 23.3503 14.303 23.3767C14.2843 23.4034 14.2691 23.433 14.2576 23.4638C14.2571 23.4644 14.2565 23.4653 14.2561 23.4665C14.2524 23.4765 14.2512 23.4879 14.2486 23.4982C14.2438 23.5168 14.2369 23.5345 14.2347 23.554L11.0422 49.9263C11.0259 50.0646 11.0849 50.2 11.1973 50.2787L24.8652 59.849C24.893 59.8675 24.9226 59.8827 24.9538 59.8937ZM13.9484 32.1963L14.9082 24.2688L21.0403 28.5626L20.0818 36.4909L13.9484 32.1963ZM12.8842 40.986L13.8441 33.059L19.9775 37.3537L19.0188 45.2815L12.8842 40.986ZM11.8202 49.7781L12.7799 41.8487L18.9148 46.1444L17.9543 54.0737L11.8202 49.7781ZM18.6541 54.5633L19.6145 46.6343L25.7479 50.929L24.7873 58.8582L18.6541 54.5633Z" fill="black"/>
<path d="M43.0134 9.10105C43.0117 9.10082 43.0103 9.10028 43.0083 9.09983C43.004 9.09819 42.9997 9.09845 42.9951 9.09713C42.9897 9.09568 42.9845 9.09531 42.9794 9.09408C42.9587 9.08896 42.9385 9.08321 42.9173 9.08146C42.9052 9.08046 42.8931 9.08273 42.8809 9.0831C42.8701 9.08349 42.8597 9.08326 42.8486 9.0848C42.8387 9.08584 42.8291 9.08518 42.8194 9.08727C42.8046 9.09004 42.7907 9.09619 42.776 9.10086C42.7606 9.10594 42.7447 9.10838 42.7296 9.11557C42.7276 9.11649 42.7259 9.11816 42.7237 9.1194C42.7217 9.12032 42.7193 9.1205 42.717 9.12174L34.8225 13.1251C34.7068 13.1838 34.6274 13.2971 34.6118 13.426L33.5507 22.2127C33.5489 22.2283 33.5512 22.2425 33.5511 22.2584C33.5513 22.2692 33.5506 22.28 33.5519 22.2912C33.5555 22.3358 33.5656 22.3789 33.5841 22.4185C33.5849 22.4199 33.5847 22.4222 33.5853 22.424C33.588 22.4286 33.592 22.4314 33.5949 22.4363C33.6127 22.4698 33.6361 22.4998 33.6636 22.5265C33.6722 22.5344 33.6798 22.5425 33.6889 22.5498C33.6949 22.555 33.6994 22.5609 33.7059 22.5654L40.3559 27.2218L38.2594 44.572C38.2579 44.5873 38.2602 44.6016 38.2598 44.6172C38.2603 44.6283 38.2596 44.639 38.2607 44.6505C38.2643 44.6951 38.2743 44.7377 38.2928 44.7773C38.2937 44.7793 38.2932 44.7813 38.2943 44.783C38.2965 44.7883 38.3013 44.7907 38.304 44.7959C38.322 44.8291 38.3451 44.8588 38.3726 44.8855C38.3807 44.8935 38.3888 44.9016 38.3979 44.9089C38.4039 44.914 38.4082 44.9203 38.4147 44.9248L45.2458 49.708C45.3582 49.7867 45.5053 49.7962 45.6299 49.7333L53.5244 45.7286C53.5424 45.7193 53.557 45.707 53.5731 45.6958C53.5823 45.6892 53.5928 45.6839 53.6013 45.6763C53.6263 45.655 53.6487 45.6309 53.6671 45.6046C53.6858 45.5779 53.701 45.5483 53.7125 45.5176C53.713 45.5169 53.7136 45.516 53.714 45.5148C53.7177 45.5049 53.7188 45.4935 53.7215 45.4832C53.7263 45.4645 53.7332 45.4469 53.7354 45.4274L56.9225 19.0667C56.9388 18.9284 56.8798 18.7931 56.7674 18.7144L43.102 9.14578C43.0742 9.12727 43.0445 9.11211 43.0134 9.10105ZM46.0028 40.7472L45.0446 48.6712L38.9136 44.3782L39.8705 36.4533L46.0028 40.7472ZM47.1226 31.9599L46.1643 39.8834L40.032 35.5895L40.5105 31.6273L40.989 27.6652L47.1226 31.9599ZM48.2797 23.2372L47.3215 31.1631L41.1877 26.8681L42.1467 18.9423L48.2797 23.2372ZM41.2368 18.3057L40.278 26.2311L34.1457 21.9373L35.1047 14.0115L41.2368 18.3057Z" fill="black"/>
<path d="M41.2368 18.3057L40.278 26.2311L34.1457 21.9373L35.1047 14.0115L41.2368 18.3057Z" fill="#F50057"/>
<path d="M48.2797 23.2372L47.3215 31.1631L41.1877 26.8681L42.1467 18.9423L48.2797 23.2372Z" fill="#F50057"/>
<path d="M47.1226 31.9599L46.1643 39.8834L40.032 35.5895L40.5105 31.6273L40.989 27.6652L47.1226 31.9599Z" fill="#F50057"/>
<path d="M46.0028 40.7472L45.0446 48.6712L38.9136 44.3782L39.8705 36.4533L46.0028 40.7472Z" fill="#F50057"/>
</svg>
