<svg width="204" height="351" viewBox="0 0 204 351" fill="none" xmlns="http://www.w3.org/2000/svg">
<path d="M81.8033 0.376838C81.7888 0.374704 81.7762 0.369867 81.7591 0.365853C81.7212 0.35137 81.6839 0.353267 81.6443 0.341459C81.5973 0.328621 81.5519 0.324915 81.5077 0.313927C81.3279 0.268132 81.152 0.216907 80.968 0.200069C80.8628 0.190465 80.7578 0.209052 80.6524 0.211253C80.5588 0.213713 80.4689 0.210823 80.3723 0.22321C80.2867 0.231302 80.2033 0.224863 80.1193 0.242087C79.9915 0.264707 79.8713 0.316596 79.7441 0.355574C79.6104 0.398047 79.4727 0.417733 79.3423 0.478467C79.3248 0.486257 79.3109 0.500479 79.2916 0.510971C79.2741 0.518761 79.2532 0.520097 79.2339 0.530564L11.075 34.3696C10.0757 34.8664 9.39698 35.8358 9.2719 36.9447L0.790967 112.559C0.77691 112.693 0.798553 112.816 0.798986 112.952C0.801333 113.046 0.796425 113.139 0.808685 113.235C0.843279 113.62 0.934497 113.992 1.09817 114.334C1.10514 114.347 1.10377 114.366 1.10886 114.382C1.13244 114.422 1.16731 114.447 1.19358 114.489C1.35031 114.779 1.55589 115.039 1.79666 115.272C1.87227 115.341 1.93875 115.411 2.01812 115.475C2.07068 115.52 2.11035 115.571 2.16667 115.611L60.2433 156.277L43.4874 305.584C43.4752 305.715 43.4969 305.838 43.4946 305.973C43.4996 306.068 43.4947 306.161 43.5051 306.26C43.5397 306.645 43.6301 307.012 43.7938 307.355C43.8016 307.372 43.7975 307.39 43.8072 307.404C43.827 307.45 43.8683 307.471 43.8927 307.516C44.0513 307.803 44.2542 308.061 44.495 308.294C44.566 308.364 44.6371 308.434 44.7164 308.497C44.769 308.542 44.8068 308.596 44.8631 308.636L104.522 350.409C105.503 351.097 106.781 351.191 107.856 350.659L176.015 316.808C176.171 316.729 176.296 316.625 176.434 316.529C176.514 316.473 176.605 316.429 176.678 316.364C176.893 316.182 177.085 315.977 177.243 315.751C177.403 315.523 177.532 315.269 177.629 315.005C177.633 315 177.639 314.992 177.642 314.982C177.674 314.896 177.682 314.798 177.704 314.71C177.745 314.55 177.803 314.398 177.82 314.23L203.295 87.383C203.425 86.1933 202.902 85.0226 201.92 84.3354L82.5755 0.769432C82.3331 0.60769 82.0745 0.474674 81.8033 0.376838ZM110.35 273.27L102.691 341.46L49.1463 303.968L56.7943 235.77L110.35 273.27ZM119.339 197.656L111.679 265.841L58.124 228.341L61.9485 194.245L65.7729 160.148L119.339 197.656ZM128.658 122.601L120.999 190.807L67.4306 153.298L75.0961 85.0925L128.658 122.601ZM67.1499 79.5322L59.4863 147.735L5.93087 110.235L13.5964 42.0297L67.1499 79.5322Z" fill="black"/>
<path d="M67.1499 79.5322L59.4863 147.735L5.93087 110.235L13.5964 42.0297L67.1499 79.5322Z" fill="#F50057"/>
<path d="M128.658 122.601L120.999 190.807L67.4306 153.298L75.0961 85.0925L128.658 122.601Z" fill="#F50057"/>
<path d="M119.339 197.656L111.679 265.841L58.124 228.341L61.9485 194.245L65.7729 160.148L119.339 197.656Z" fill="#F50057"/>
<path d="M110.35 273.27L102.691 341.46L49.1463 303.968L56.7943 235.77L110.35 273.27Z" fill="#F50057"/>
</svg>
