<svg width="27" height="42" viewBox="0 0 27 42" fill="none" xmlns="http://www.w3.org/2000/svg">
<path d="M0 1.50743L0 11.7971C0 12.6283 0.670181 13.3026 1.49559 13.3026L11.7154 13.3026C12.5408 13.3026 13.2104 12.6283 13.2104 11.7971L13.2104 1.5068C13.2104 0.674333 12.5408 7.06043e-05 11.7154 7.06043e-05L1.49559 7.06043e-05C0.670181 7.06043e-05 0 0.674333 0 1.50743Z" fill="white"/>
<path d="M13.7864 29.5489L13.7864 39.8393C13.7864 40.6705 14.4566 41.3447 15.282 41.3447H25.5018C26.3272 41.3447 26.9967 40.6705 26.9967 39.8393V29.5489C26.9967 28.7164 26.3272 28.0422 25.5018 28.0422H15.282C14.4559 28.0422 13.7864 28.7164 13.7864 29.5489Z" fill="white"/>
<path d="M0 15.5283L0 25.818C0 26.6492 0.670181 27.3235 1.49559 27.3235H11.7154C12.5408 27.3235 13.2104 26.6492 13.2104 25.818L13.2104 15.5277C13.2104 14.6952 12.5408 14.0209 11.7154 14.0209L1.49497 14.0209C0.669557 14.0209 0 14.6952 0 15.5283Z" fill="white"/>
<path d="M0 29.5489L0 39.8393C0 40.6705 0.670181 41.3447 1.49559 41.3447H11.7154C12.5408 41.3447 13.2104 40.6705 13.2104 39.8393L13.2104 29.5489C13.2104 28.7164 12.5408 28.0422 11.7154 28.0422H1.49497C0.669557 28.0422 0 28.7164 0 29.5489Z" fill="white"/>
</svg>
