<svg width="28" height="28" viewBox="0 0 28 28" fill="none" xmlns="http://www.w3.org/2000/svg">
<path d="M26.0162 13.9335H15.8005C14.9753 13.9335 14.3059 14.6082 14.3059 15.4391V25.7276C14.3059 26.5586 14.9753 27.2326 15.8005 27.2326H26.0162C26.8426 27.2326 27.512 26.5586 27.512 25.7276V15.4391C27.512 14.6082 26.8426 13.9335 26.0162 13.9335Z" fill="white"/>
<path d="M12.2257 13.9335H2.01056C1.18475 13.9335 0.515381 14.6082 0.515381 15.4391V25.7276C0.515381 26.5586 1.18475 27.2326 2.01056 27.2326H12.2263C13.0521 27.2326 13.7221 26.5586 13.7221 25.7276V15.4391C13.7215 14.6082 13.0521 13.9335 12.2257 13.9335Z" fill="white"/>
<path d="M26.0162 0.0461426H15.8005C14.9753 0.0461426 14.3059 0.720829 14.3059 1.55179V11.839C14.3059 12.6713 14.9753 13.3453 15.8005 13.3453H26.0162C26.8426 13.3453 27.512 12.6713 27.512 11.839V1.55179C27.512 0.720829 26.8426 0.0461426 26.0162 0.0461426Z" fill="white"/>
<path d="M12.2257 0.0461426H2.01056C1.18475 0.0461426 0.515381 0.720829 0.515381 1.55179V11.839C0.515381 12.6713 1.18475 13.3453 2.01056 13.3453H12.2263C13.0521 13.3453 13.7221 12.6713 13.7221 11.839V1.55179C13.7215 0.720829 13.0521 0.0461426 12.2257 0.0461426Z" fill="white"/>
</svg>
