<svg width="28" height="42" viewBox="0 0 28 42" fill="none" xmlns="http://www.w3.org/2000/svg">
<path d="M0.97937 1.54503L0.97937 11.8347C0.97937 12.6659 1.64955 13.3402 2.47496 13.3402L12.6948 13.3402C13.5202 13.3402 14.1897 12.6659 14.1897 11.8347L14.1897 1.5444C14.1897 0.711931 13.5202 0.0376683 12.6948 0.0376683L2.47496 0.0376683C1.64955 0.0376683 0.97937 0.71193 0.97937 1.54503Z" fill="#F50057"/>
<path d="M14.7658 29.5865L14.7658 39.8768C14.7658 40.7081 15.436 41.3823 16.2614 41.3823H26.4812C27.3066 41.3823 27.9762 40.7081 27.9762 39.8768V29.5865C27.9762 28.754 27.3066 28.0798 26.4812 28.0798H16.2614C15.4354 28.0798 14.7658 28.754 14.7658 29.5865Z" fill="#F50057"/>
<path d="M0.97937 15.5659L0.97937 25.8556C0.97937 26.6868 1.64955 27.3611 2.47496 27.3611H12.6948C13.5202 27.3611 14.1897 26.6868 14.1897 25.8556L14.1897 15.5653C14.1897 14.7328 13.5202 14.0585 12.6948 14.0585L2.47434 14.0585C1.64893 14.0585 0.97937 14.7328 0.97937 15.5659Z" fill="#F50057"/>
<path d="M0.97937 29.5865L0.97937 39.8768C0.97937 40.7081 1.64955 41.3823 2.47496 41.3823H12.6948C13.5202 41.3823 14.1897 40.7081 14.1897 39.8768L14.1897 29.5865C14.1897 28.754 13.5202 28.0798 12.6948 28.0798H2.47434C1.64893 28.0798 0.97937 28.754 0.97937 29.5865Z" fill="#F50057"/>
</svg>
