<svg width="42" height="28" viewBox="0 0 42 28" fill="none" xmlns="http://www.w3.org/2000/svg">
<path d="M40.0015 0.0463867H29.6685C28.8338 0.0463867 28.1567 0.728875 28.1567 1.56945V11.9769C28.1567 12.8175 28.8338 13.4993 29.6685 13.4993H40.0021C40.8381 13.4993 41.5152 12.8175 41.5152 11.9769V1.56945C41.5152 0.728875 40.8381 0.0463867 40.0015 0.0463867Z" fill="white"/>
<path d="M25.9219 14.0859H15.589C14.7542 14.0859 14.0771 14.7684 14.0771 15.609V26.0165C14.0771 26.857 14.7542 27.5389 15.589 27.5389H25.9226C26.7585 27.5389 27.4356 26.857 27.4356 26.0165V15.609C27.4356 14.7678 26.7585 14.0859 25.9219 14.0859Z" fill="white"/>
<path d="M25.9219 0.0463867H15.589C14.7542 0.0463867 14.0771 0.728875 14.0771 1.56945V11.9769C14.0771 12.8175 14.7542 13.4993 15.589 13.4993H25.9226C26.7585 13.4993 27.4356 12.8175 27.4356 11.9769V1.56881C27.4356 0.728239 26.7585 0.0463867 25.9219 0.0463867Z" fill="white"/>
<path d="M11.8422 14.0859H1.50863C0.673923 14.0859 -0.00317383 14.7684 -0.00317383 15.609V26.0165C-0.00317383 26.857 0.673923 27.5389 1.50863 27.5389H11.8422C12.6782 27.5389 13.3553 26.857 13.3553 26.0165V15.609C13.3553 14.7678 12.6782 14.0859 11.8422 14.0859Z" fill="white"/>
</svg>
