<svg width="43" height="28" viewBox="0 0 43 28" fill="none" xmlns="http://www.w3.org/2000/svg">
<path d="M40.9368 0.0840454H30.6038C29.7691 0.0840454 29.092 0.766534 29.092 1.60711V12.0146C29.092 12.8551 29.7691 13.537 30.6038 13.537H40.9374C41.7734 13.537 42.4505 12.8551 42.4505 12.0146V1.60711C42.4505 0.766534 41.7734 0.0840454 40.9368 0.0840454Z" fill="#F50057"/>
<path d="M26.8571 14.1237H16.5241C15.6894 14.1237 15.0123 14.8061 15.0123 15.6467V26.0542C15.0123 26.8948 15.6894 27.5766 16.5241 27.5766H26.8577C27.6937 27.5766 28.3708 26.8948 28.3708 26.0542V15.6467C28.3708 14.8055 27.6937 14.1237 26.8571 14.1237Z" fill="#F50057"/>
<path d="M26.8571 0.0840454H16.5241C15.6894 0.0840454 15.0123 0.766534 15.0123 1.60711V12.0146C15.0123 12.8551 15.6894 13.537 16.5241 13.537H26.8577C27.6937 13.537 28.3708 12.8551 28.3708 12.0146V1.60647C28.3708 0.765898 27.6937 0.0840454 26.8571 0.0840454Z" fill="#F50057"/>
<path d="M12.7774 14.1237H2.44381C1.6091 14.1237 0.932007 14.8061 0.932007 15.6467V26.0542C0.932007 26.8948 1.6091 27.5766 2.44381 27.5766H12.7774C13.6134 27.5766 14.2905 26.8948 14.2905 26.0542V15.6467C14.2905 14.8055 13.6134 14.1237 12.7774 14.1237Z" fill="#F50057"/>
</svg>
