<svg width="28" height="28" viewBox="0 0 28 28" fill="none" xmlns="http://www.w3.org/2000/svg">
<path d="M26.3839 13.9711H16.1681C15.343 13.9711 14.6736 14.6458 14.6736 15.4767V25.7652C14.6736 26.5962 15.343 27.2702 16.1681 27.2702H26.3839C27.2103 27.2702 27.8797 26.5962 27.8797 25.7652V15.4767C27.8797 14.6458 27.2103 13.9711 26.3839 13.9711Z" fill="#F50057"/>
<path d="M12.5933 13.9711H2.37824C1.55243 13.9711 0.883057 14.6458 0.883057 15.4767V25.7652C0.883057 26.5962 1.55243 27.2702 2.37824 27.2702H12.594C13.4198 27.2702 14.0898 26.5962 14.0898 25.7652V15.4767C14.0892 14.6458 13.4198 13.9711 12.5933 13.9711Z" fill="#F50057"/>
<path d="M26.384 0.0838013H16.1683C15.3431 0.0838013 14.6737 0.758488 14.6737 1.58945V11.8767C14.6737 12.7089 15.3431 13.383 16.1683 13.383H26.384C27.2104 13.383 27.8798 12.7089 27.8798 11.8767V1.58945C27.8798 0.758488 27.2104 0.0838013 26.384 0.0838013Z" fill="#F50057"/>
<path d="M12.5933 0.0838013H2.37824C1.55243 0.0838013 0.883057 0.758488 0.883057 1.58945V11.8767C0.883057 12.7089 1.55243 13.383 2.37824 13.383H12.594C13.4198 13.383 14.0898 12.7089 14.0898 11.8767V1.58945C14.0892 0.758488 13.4198 0.0838013 12.5933 0.0838013Z" fill="#F50057"/>
</svg>
