<svg width="1408" height="545" viewBox="0 0 1408 545" fill="none" xmlns="http://www.w3.org/2000/svg">
<path d="M52.1774 22.1525H35.7883C34.4645 22.1525 33.3906 23.2274 33.3906 24.5512V40.9422C33.3906 42.2661 34.4645 43.3399 35.7883 43.3399H52.1774C53.5032 43.3399 54.5771 42.2661 54.5771 40.9422V24.5512C54.5771 23.2274 53.5032 22.1525 52.1774 22.1525Z" fill="#0888A8" fill-opacity="0.05"/>
<path d="M30.053 22.1525H13.665C12.3402 22.1525 11.2663 23.2274 11.2663 24.5512V40.9422C11.2663 42.2661 12.3402 43.3399 13.665 43.3399H30.054C31.3789 43.3399 32.4538 42.2661 32.4538 40.9422V24.5512C32.4528 23.2274 31.3789 22.1525 30.053 22.1525Z" fill="#F50057" fill-opacity="0.05"/>
<path d="M52.1774 0.0281372H35.7883C34.4645 0.0281372 33.3906 1.10301 33.3906 2.42685V18.8159C33.3906 20.1417 34.4645 21.2156 35.7883 21.2156H52.1774C53.5032 21.2156 54.5771 20.1417 54.5771 18.8159V2.42685C54.5771 1.10301 53.5032 0.0281372 52.1774 0.0281372Z" fill="#F50057" fill-opacity="0.05"/>
<path d="M30.053 0.0281372H13.665C12.3402 0.0281372 11.2663 1.10301 11.2663 2.42685V18.8159C11.2663 20.1417 12.3402 21.2156 13.665 21.2156H30.054C31.3789 21.2156 32.4538 20.1417 32.4538 18.8159V2.42685C32.4528 1.10301 31.3789 0.0281372 30.053 0.0281372Z" fill="#0888A8" fill-opacity="0.05"/>
<path d="M682.102 155.097H665.713C664.389 155.097 663.315 156.172 663.315 157.496V173.887C663.315 175.211 664.389 176.285 665.713 176.285H682.102C683.428 176.285 684.502 175.211 684.502 173.887V157.496C684.502 156.172 683.428 155.097 682.102 155.097Z" fill="#F50057" fill-opacity="0.05"/>
<path d="M659.977 155.097H643.589C642.265 155.097 641.191 156.172 641.191 157.496V173.887C641.191 175.211 642.265 176.285 643.589 176.285H659.978C661.303 176.285 662.378 175.211 662.378 173.887V157.496C662.377 156.172 661.303 155.097 659.977 155.097Z" fill="#F50057" fill-opacity="0.05"/>
<path d="M682.102 132.973H665.713C664.389 132.973 663.315 134.048 663.315 135.372V151.761C663.315 153.087 664.389 154.161 665.713 154.161H682.102C683.428 154.161 684.502 153.087 684.502 151.761V135.372C684.502 134.048 683.428 132.973 682.102 132.973Z" fill="#F50057" fill-opacity="0.05"/>
<path d="M659.977 132.973H643.589C642.265 132.973 641.191 134.048 641.191 135.372V151.761C641.191 153.087 642.265 154.161 643.589 154.161H659.978C661.303 154.161 662.378 153.087 662.378 151.761V135.372C662.377 134.048 661.303 132.973 659.977 132.973Z" fill="#F50057" fill-opacity="0.05"/>
<path d="M1023.06 30.1125H1006.67C1005.35 30.1125 1004.27 31.1873 1004.27 32.5112V48.9022C1004.27 50.226 1005.35 51.2999 1006.67 51.2999H1023.06C1024.39 51.2999 1025.46 50.226 1025.46 48.9022V32.5112C1025.46 31.1873 1024.39 30.1125 1023.06 30.1125Z" fill="#F50057" fill-opacity="0.05"/>
<path d="M1000.94 30.1125H984.549C983.224 30.1125 982.15 31.1873 982.15 32.5112V48.9022C982.15 50.226 983.224 51.2999 984.549 51.2999H1000.94C1002.26 51.2999 1003.34 50.226 1003.34 48.9022V32.5112C1003.34 31.1873 1002.26 30.1125 1000.94 30.1125Z" fill="#F50057" fill-opacity="0.05"/>
<path d="M1023.06 7.98811H1006.67C1005.35 7.98811 1004.27 9.06298 1004.27 10.3868V26.7759C1004.27 28.1017 1005.35 29.1756 1006.67 29.1756H1023.06C1024.39 29.1756 1025.46 28.1017 1025.46 26.7759V10.3868C1025.46 9.06298 1024.39 7.98811 1023.06 7.98811Z" fill="#F50057" fill-opacity="0.05"/>
<path d="M1000.94 7.98811H984.549C983.224 7.98811 982.15 9.06298 982.15 10.3868V26.7759C982.15 28.1017 983.224 29.1756 984.549 29.1756H1000.94C1002.26 29.1756 1003.34 28.1017 1003.34 26.7759V10.3868C1003.34 9.06298 1002.26 7.98811 1000.94 7.98811Z" fill="#F50057" fill-opacity="0.05"/>
<path d="M220.887 175.095H204.498C203.174 175.095 202.1 176.17 202.1 177.494V193.885C202.1 195.209 203.174 196.283 204.498 196.283H220.887C222.213 196.283 223.287 195.209 223.287 193.885V177.494C223.287 176.17 222.213 175.095 220.887 175.095Z" fill="#F50057" fill-opacity="0.05"/>
<path d="M198.763 175.095H182.375C181.05 175.095 179.976 176.17 179.976 177.494V193.885C179.976 195.209 181.05 196.283 182.375 196.283H198.764C200.089 196.283 201.164 195.209 201.164 193.885V177.494C201.163 176.17 200.089 175.095 198.763 175.095Z" fill="#F50057" fill-opacity="0.05"/>
<path d="M220.887 152.971H204.498C203.174 152.971 202.1 154.046 202.1 155.369V171.758C202.1 173.084 203.174 174.158 204.498 174.158H220.887C222.213 174.158 223.287 173.084 223.287 171.758V155.369C223.287 154.046 222.213 152.971 220.887 152.971Z" fill="#F50057" fill-opacity="0.05"/>
<path d="M198.763 152.971H182.375C181.05 152.971 179.976 154.046 179.976 155.369V171.758C179.976 173.084 181.05 174.158 182.375 174.158H198.764C200.089 174.158 201.164 173.084 201.164 171.758V155.369C201.163 154.046 200.089 152.971 198.763 152.971Z" fill="#F50057" fill-opacity="0.05"/>
<path d="M276.88 396.069H260.491C259.168 396.069 258.094 397.143 258.094 398.467V414.858C258.094 416.182 259.168 417.256 260.491 417.256H276.88C278.206 417.256 279.28 416.182 279.28 414.858V398.467C279.28 397.143 278.206 396.069 276.88 396.069Z" fill="#F50057" fill-opacity="0.05"/>
<path d="M254.756 396.069H238.368C237.043 396.069 235.969 397.143 235.969 398.467V414.858C235.969 416.182 237.043 417.256 238.368 417.256H254.757C256.082 417.256 257.157 416.182 257.157 414.858V398.467C257.156 397.143 256.082 396.069 254.756 396.069Z" fill="#F50057" fill-opacity="0.05"/>
<path d="M276.88 373.944H260.491C259.168 373.944 258.094 375.019 258.094 376.343V392.732C258.094 394.058 259.168 395.132 260.491 395.132H276.88C278.206 395.132 279.28 394.058 279.28 392.732V376.343C279.28 375.019 278.206 373.944 276.88 373.944Z" fill="#F50057" fill-opacity="0.05"/>
<path d="M254.756 373.944H238.368C237.043 373.944 235.969 375.019 235.969 376.343V392.732C235.969 394.058 237.043 395.132 238.368 395.132H254.757C256.082 395.132 257.157 394.058 257.157 392.732V376.343C257.156 375.019 256.082 373.944 254.756 373.944Z" fill="#F50057" fill-opacity="0.05"/>
<path d="M850.812 308.04H834.423C833.099 308.04 832.025 309.115 832.025 310.439V326.83C832.025 328.154 833.099 329.228 834.423 329.228H850.812C852.137 329.228 853.211 328.154 853.211 326.83V310.439C853.211 309.115 852.137 308.04 850.812 308.04Z" fill="#0888A8" fill-opacity="0.05"/>
<path d="M828.687 308.04H812.299C810.974 308.04 809.901 309.115 809.901 310.439V326.83C809.901 328.154 810.974 329.228 812.299 329.228H828.688C830.013 329.228 831.088 328.154 831.088 326.83V310.439C831.087 309.115 830.013 308.04 828.687 308.04Z" fill="#0888A8" fill-opacity="0.05"/>
<path d="M850.812 285.916H834.423C833.099 285.916 832.025 286.991 832.025 288.314V304.703C832.025 306.029 833.099 307.103 834.423 307.103H850.812C852.137 307.103 853.211 306.029 853.211 304.703V288.314C853.211 286.991 852.137 285.916 850.812 285.916Z" fill="#0888A8" fill-opacity="0.05"/>
<path d="M828.687 285.916H812.299C810.974 285.916 809.901 286.991 809.901 288.314V304.703C809.901 306.029 810.974 307.103 812.299 307.103H828.688C830.013 307.103 831.088 306.029 831.088 304.703V288.314C831.087 286.991 830.013 285.916 828.687 285.916Z" fill="#0888A8" fill-opacity="0.05"/>
<path d="M554.847 163.057H538.458C537.134 163.057 536.06 164.132 536.06 165.456V181.847C536.06 183.171 537.134 184.245 538.458 184.245H554.847C556.173 184.245 557.247 183.171 557.247 181.847V165.456C557.247 164.132 556.173 163.057 554.847 163.057Z" fill="#F50057" fill-opacity="0.05"/>
<path d="M532.723 163.057H516.335C515.01 163.057 513.936 164.132 513.936 165.456V181.847C513.936 183.171 515.01 184.245 516.335 184.245H532.724C534.049 184.245 535.123 183.171 535.123 181.847V165.456C535.122 164.132 534.049 163.057 532.723 163.057Z" fill="#0888A8" fill-opacity="0.05"/>
<path d="M554.847 140.933H538.458C537.134 140.933 536.06 142.008 536.06 143.332V159.721C536.06 161.047 537.134 162.121 538.458 162.121H554.847C556.173 162.121 557.247 161.047 557.247 159.721V143.332C557.247 142.008 556.173 140.933 554.847 140.933Z" fill="#0888A8" fill-opacity="0.05"/>
<path d="M532.723 140.933H516.335C515.01 140.933 513.936 142.008 513.936 143.332V159.721C513.936 161.047 515.01 162.121 516.335 162.121H532.724C534.049 162.121 535.123 161.047 535.123 159.721V143.332C535.122 142.008 534.049 140.933 532.723 140.933Z" fill="#F50057" fill-opacity="0.05"/>
<path d="M1191.77 183.055H1175.38C1174.06 183.055 1172.98 184.13 1172.98 185.454V201.845C1172.98 203.169 1174.06 204.243 1175.38 204.243H1191.77C1193.1 204.243 1194.17 203.169 1194.17 201.845V185.454C1194.17 184.13 1193.1 183.055 1191.77 183.055Z" fill="#F50057" fill-opacity="0.05"/>
<path d="M1169.65 183.055H1153.26C1151.93 183.055 1150.86 184.13 1150.86 185.454V201.845C1150.86 203.169 1151.93 204.243 1153.26 204.243H1169.65C1170.97 204.243 1172.05 203.169 1172.05 201.845V185.454C1172.05 184.13 1170.97 183.055 1169.65 183.055Z" fill="#F50057" fill-opacity="0.05"/>
<path d="M1191.77 160.931H1175.38C1174.06 160.931 1172.98 162.006 1172.98 163.329V179.718C1172.98 181.044 1174.06 182.118 1175.38 182.118H1191.77C1193.1 182.118 1194.17 181.044 1194.17 179.718V163.329C1194.17 162.006 1193.1 160.931 1191.77 160.931Z" fill="#F50057" fill-opacity="0.05"/>
<path d="M1169.65 160.931H1153.26C1151.93 160.931 1150.86 162.006 1150.86 163.329V179.718C1150.86 181.044 1151.93 182.118 1153.26 182.118H1169.65C1170.97 182.118 1172.05 181.044 1172.05 179.718V163.329C1172.05 162.006 1170.97 160.931 1169.65 160.931Z" fill="#F50057" fill-opacity="0.05"/>
<path d="M156.434 65.9812H140.046C138.722 65.9812 137.648 67.056 137.648 68.3799V84.7709C137.648 86.0948 138.722 87.1686 140.046 87.1686H156.435C157.761 87.1686 158.835 86.0948 158.835 84.7709V68.3799C158.835 67.056 157.761 65.9812 156.434 65.9812Z" fill="#F50057" fill-opacity="0.05"/>
<path d="M134.103 88.0925H117.715C116.392 88.0925 115.318 89.1674 115.318 90.4912V106.882C115.318 108.206 116.392 109.28 117.715 109.28H134.104C135.43 109.28 136.504 108.206 136.504 106.882V90.4912C136.504 89.1664 135.43 88.0925 134.103 88.0925Z" fill="#F50057" fill-opacity="0.05"/>
<path d="M134.103 65.9812H117.715C116.392 65.9812 115.318 67.056 115.318 68.3799V84.7709C115.318 86.0948 116.392 87.1686 117.715 87.1686H134.104C135.43 87.1686 136.504 86.0948 136.504 84.7709V68.3789C136.504 67.055 135.43 65.9812 134.103 65.9812Z" fill="#F50057" fill-opacity="0.05"/>
<path d="M111.773 88.0925H95.3842C94.0603 88.0925 92.9865 89.1674 92.9865 90.4912V106.882C92.9865 108.206 94.0603 109.28 95.3842 109.28H111.773C113.099 109.28 114.173 108.206 114.173 106.882V90.4912C114.173 89.1664 113.099 88.0925 111.773 88.0925Z" fill="#F50057" fill-opacity="0.05"/>
<path d="M786.358 198.926H769.97C768.646 198.926 767.573 200.001 767.573 201.325V217.716C767.573 219.04 768.646 220.114 769.97 220.114H786.359C787.685 220.114 788.759 219.04 788.759 217.716V201.325C788.759 200.001 787.685 198.926 786.358 198.926Z" fill="#F50057" fill-opacity="0.05"/>
<path d="M764.028 221.037H747.64C746.316 221.037 745.242 222.112 745.242 223.436V239.827C745.242 241.151 746.316 242.225 747.64 242.225H764.029C765.355 242.225 766.429 241.151 766.429 239.827V223.436C766.429 222.111 765.355 221.037 764.028 221.037Z" fill="#F50057" fill-opacity="0.05"/>
<path d="M764.028 198.926H747.64C746.316 198.926 745.242 200.001 745.242 201.325V217.716C745.242 219.04 746.316 220.114 747.64 220.114H764.029C765.355 220.114 766.429 219.04 766.429 217.716V201.324C766.429 200 765.355 198.926 764.028 198.926Z" fill="#F50057" fill-opacity="0.05"/>
<path d="M741.698 221.037H725.309C723.985 221.037 722.911 222.112 722.911 223.436V239.827C722.911 241.151 723.985 242.225 725.309 242.225H741.698C743.023 242.225 744.097 241.151 744.097 239.827V223.436C744.097 222.111 743.023 221.037 741.698 221.037Z" fill="#F50057" fill-opacity="0.05"/>
<path d="M849.351 45.9836H832.963C831.639 45.9836 830.565 47.0584 830.565 48.3823V64.7733C830.565 66.0971 831.639 67.171 832.963 67.171H849.352C850.678 67.171 851.751 66.0971 851.751 64.7733V48.3823C851.751 47.0584 850.678 45.9836 849.351 45.9836Z" fill="#F50057" fill-opacity="0.05"/>
<path d="M827.02 68.0949H810.632C809.308 68.0949 808.235 69.1698 808.235 70.4936V86.8847C808.235 88.2085 809.308 89.2824 810.632 89.2824H827.021C828.347 89.2824 829.421 88.2085 829.421 86.8847V70.4936C829.421 69.1688 828.347 68.0949 827.02 68.0949Z" fill="#F50057" fill-opacity="0.05"/>
<path d="M827.02 45.9836H810.632C809.308 45.9836 808.235 47.0584 808.235 48.3823V64.7733C808.235 66.0971 809.308 67.171 810.632 67.171H827.021C828.347 67.171 829.421 66.0971 829.421 64.7733V48.3813C829.421 47.0574 828.347 45.9836 827.02 45.9836Z" fill="#F50057" fill-opacity="0.05"/>
<path d="M804.69 68.0949H788.301C786.977 68.0949 785.903 69.1698 785.903 70.4936V86.8847C785.903 88.2085 786.977 89.2824 788.301 89.2824H804.69C806.016 89.2824 807.09 88.2085 807.09 86.8847V70.4936C807.09 69.1688 806.016 68.0949 804.69 68.0949Z" fill="#F50057" fill-opacity="0.05"/>
<path d="M490.394 53.9435H474.006C472.682 53.9435 471.608 55.0184 471.608 56.3423V72.7333C471.608 74.0571 472.682 75.131 474.006 75.131H490.395C491.721 75.131 492.794 74.0571 492.794 72.7333V56.3423C492.794 55.0184 491.721 53.9435 490.394 53.9435Z" fill="#F50057" fill-opacity="0.05"/>
<path d="M468.064 76.0549H451.675C450.352 76.0549 449.278 77.1298 449.278 78.4536V94.8446C449.278 96.1685 450.352 97.2424 451.675 97.2424H468.065C469.39 97.2424 470.464 96.1685 470.464 94.8446V78.4536C470.464 77.1288 469.39 76.0549 468.064 76.0549Z" fill="#F50057" fill-opacity="0.05"/>
<path d="M468.064 53.9435H451.675C450.352 53.9435 449.278 55.0184 449.278 56.3423V72.7333C449.278 74.0571 450.352 75.131 451.675 75.131H468.065C469.39 75.131 470.464 74.0571 470.464 72.7333V56.3413C470.464 55.0174 469.39 53.9435 468.064 53.9435Z" fill="#F50057" fill-opacity="0.05"/>
<path d="M445.733 76.0549H429.344C428.02 76.0549 426.946 77.1298 426.946 78.4536V94.8446C426.946 96.1685 428.02 97.2424 429.344 97.2424H445.733C447.059 97.2424 448.133 96.1685 448.133 94.8446V78.4536C448.133 77.1288 447.059 76.0549 445.733 76.0549Z" fill="#F50057" fill-opacity="0.05"/>
<path d="M661.373 394.942H644.985C643.661 394.942 642.588 396.017 642.588 397.34V413.732C642.588 415.055 643.661 416.129 644.985 416.129H661.374C662.7 416.129 663.774 415.055 663.774 413.732V397.34C663.774 396.017 662.7 394.942 661.373 394.942Z" fill="#F50057" fill-opacity="0.05"/>
<path d="M639.043 417.053H622.655C621.331 417.053 620.257 418.128 620.257 419.452V435.843C620.257 437.167 621.331 438.241 622.655 438.241H639.044C640.37 438.241 641.444 437.167 641.444 435.843V419.452C641.444 418.127 640.37 417.053 639.043 417.053Z" fill="#F50057" fill-opacity="0.05"/>
<path d="M639.043 394.942H622.655C621.331 394.942 620.257 396.017 620.257 397.34V413.732C620.257 415.055 621.331 416.129 622.655 416.129H639.044C640.37 416.129 641.444 415.055 641.444 413.732V397.339C641.444 396.016 640.37 394.942 639.043 394.942Z" fill="#F50057" fill-opacity="0.05"/>
<path d="M616.713 417.053H600.324C599 417.053 597.926 418.128 597.926 419.452V435.843C597.926 437.167 599 438.241 600.324 438.241H616.713C618.038 438.241 619.112 437.167 619.112 435.843V419.452C619.112 418.127 618.038 417.053 616.713 417.053Z" fill="#F50057" fill-opacity="0.05"/>
<path d="M1127.32 73.9412H1110.93C1109.61 73.9412 1108.53 75.016 1108.53 76.3399V92.7309C1108.53 94.0548 1109.61 95.1286 1110.93 95.1286H1127.32C1128.64 95.1286 1129.72 94.0548 1129.72 92.7309V76.3399C1129.72 75.016 1128.64 73.9412 1127.32 73.9412Z" fill="#F50057" fill-opacity="0.05"/>
<path d="M1104.99 96.0525H1088.6C1087.28 96.0525 1086.2 97.1274 1086.2 98.4512V114.842C1086.2 116.166 1087.28 117.24 1088.6 117.24H1104.99C1106.31 117.24 1107.39 116.166 1107.39 114.842V98.4512C1107.39 97.1264 1106.31 96.0525 1104.99 96.0525Z" fill="#F50057" fill-opacity="0.05"/>
<path d="M1104.99 73.9412H1088.6C1087.28 73.9412 1086.2 75.016 1086.2 76.3399V92.7309C1086.2 94.0548 1087.28 95.1286 1088.6 95.1286H1104.99C1106.31 95.1286 1107.39 94.0548 1107.39 92.7309V76.3389C1107.39 75.015 1106.31 73.9412 1104.99 73.9412Z" fill="#F50057" fill-opacity="0.05"/>
<path d="M1082.66 96.0525H1066.27C1064.94 96.0525 1063.87 97.1274 1063.87 98.4512V114.842C1063.87 116.166 1064.94 117.24 1066.27 117.24H1082.66C1083.98 117.24 1085.06 116.166 1085.06 114.842V98.4512C1085.06 97.1264 1083.98 96.0525 1082.66 96.0525Z" fill="#F50057" fill-opacity="0.05"/>
<path d="M215.248 47.1084L215.248 63.4965C215.248 64.8203 216.323 65.8942 217.647 65.8942L234.038 65.8942C235.361 65.8942 236.435 64.8203 236.435 63.4965L236.435 47.1074C236.435 45.7816 235.361 44.7077 234.038 44.7077L217.647 44.7077C216.323 44.7077 215.248 45.7816 215.248 47.1084Z" fill="#F50057" fill-opacity="0.05"/>
<path d="M237.359 69.4388L237.359 85.8268C237.359 87.1506 238.434 88.2245 239.758 88.2245L256.149 88.2245C257.473 88.2245 258.547 87.1506 258.547 85.8268L258.547 69.4378C258.547 68.1119 257.473 67.0381 256.149 67.0381L239.758 67.0381C238.433 67.0381 237.359 68.1119 237.359 69.4388Z" fill="#F50057" fill-opacity="0.05"/>
<path d="M215.248 69.4388L215.248 85.8268C215.248 87.1506 216.323 88.2245 217.647 88.2245L234.038 88.2245C235.361 88.2245 236.435 87.1506 236.435 85.8268L236.435 69.4378C236.435 68.1119 235.361 67.0381 234.038 67.0381L217.646 67.0381C216.322 67.0381 215.248 68.1119 215.248 69.4388Z" fill="#F50057" fill-opacity="0.05"/>
<path d="M237.359 91.7691L237.359 108.158C237.359 109.482 238.434 110.556 239.758 110.556L256.149 110.556C257.473 110.556 258.547 109.482 258.547 108.158L258.547 91.7691C258.547 90.4433 257.473 89.3694 256.149 89.3694L239.758 89.3694C238.433 89.3694 237.359 90.4433 237.359 91.7691Z" fill="#F50057" fill-opacity="0.05"/>
<path d="M845.172 180.053L845.172 196.441C845.172 197.765 846.247 198.839 847.571 198.839L863.962 198.839C865.286 198.839 866.36 197.765 866.36 196.441L866.36 180.052C866.36 178.727 865.286 177.653 863.962 177.653L847.571 177.653C846.247 177.653 845.172 178.727 845.172 180.053Z" fill="#F50057" fill-opacity="0.05"/>
<path d="M867.284 202.384L867.284 218.772C867.284 220.096 868.359 221.169 869.682 221.169L886.073 221.169C887.397 221.169 888.471 220.096 888.471 218.772L888.471 202.383C888.471 201.057 887.397 199.983 886.073 199.983L869.682 199.983C868.358 199.983 867.284 201.057 867.284 202.384Z" fill="#F50057" fill-opacity="0.05"/>
<path d="M845.172 202.384L845.172 218.772C845.172 220.096 846.247 221.169 847.571 221.169L863.962 221.169C865.286 221.169 866.36 220.096 866.36 218.772L866.36 202.383C866.36 201.057 865.286 199.983 863.962 199.983L847.57 199.983C846.246 199.983 845.172 201.057 845.172 202.384Z" fill="#F50057" fill-opacity="0.05"/>
<path d="M867.284 224.714L867.284 241.103C867.284 242.427 868.359 243.501 869.682 243.501L886.073 243.501C887.397 243.501 888.471 242.427 888.471 241.103L888.471 224.714C888.471 223.388 887.397 222.314 886.073 222.314L869.682 222.314C868.358 222.314 867.284 223.388 867.284 224.714Z" fill="#F50057" fill-opacity="0.05"/>
<path d="M549.208 35.0708L549.208 51.4589C549.208 52.7827 550.283 53.8566 551.606 53.8566L567.998 53.8566C569.321 53.8566 570.395 52.7827 570.395 51.4589L570.395 35.0698C570.395 33.744 569.321 32.6701 567.998 32.6701L551.606 32.6701C550.283 32.6701 549.208 33.744 549.208 35.0708Z" fill="#F50057" fill-opacity="0.05"/>
<path d="M571.319 57.4011L571.319 73.7892C571.319 75.113 572.394 76.1869 573.718 76.1869L590.109 76.1869C591.433 76.1869 592.507 75.113 592.507 73.7892L592.507 57.4001C592.507 56.0743 591.433 55.0004 590.109 55.0004L573.718 55.0004C572.393 55.0004 571.319 56.0743 571.319 57.4011Z" fill="#F50057" fill-opacity="0.05"/>
<path d="M549.208 57.4011L549.208 73.7892C549.208 75.113 550.283 76.1869 551.606 76.1869L567.998 76.1869C569.321 76.1869 570.395 75.113 570.395 73.7892L570.395 57.4001C570.395 56.0743 569.321 55.0004 567.998 55.0004L551.605 55.0004C550.282 55.0004 549.208 56.0743 549.208 57.4011Z" fill="#F50057" fill-opacity="0.05"/>
<path d="M571.319 79.7315L571.319 96.1205C571.319 97.4443 572.394 98.5182 573.718 98.5182L590.109 98.5182C591.433 98.5182 592.507 97.4443 592.507 96.1205L592.507 79.7315C592.507 78.4056 591.433 77.3318 590.109 77.3318L573.718 77.3318C572.393 77.3318 571.319 78.4056 571.319 79.7315Z" fill="#F50057" fill-opacity="0.05"/>
<path d="M1186.13 55.0684L1186.13 71.4564C1186.13 72.7803 1187.21 73.8542 1188.53 73.8542L1204.92 73.8542C1206.25 73.8542 1207.32 72.7803 1207.32 71.4564L1207.32 55.0674C1207.32 53.7416 1206.25 52.6677 1204.92 52.6677L1188.53 52.6677C1187.21 52.6677 1186.13 53.7416 1186.13 55.0684Z" fill="#0888A8" fill-opacity="0.05"/>
<path d="M1208.24 77.3987L1208.24 93.7868C1208.24 95.1106 1209.32 96.1845 1210.64 96.1845L1227.03 96.1845C1228.36 96.1845 1229.43 95.1106 1229.43 93.7868L1229.43 77.3977C1229.43 76.0719 1228.36 74.998 1227.03 74.998L1210.64 74.998C1209.32 74.998 1208.24 76.0719 1208.24 77.3987Z" fill="#F50057" fill-opacity="0.05"/>
<path d="M1186.13 77.3987L1186.13 93.7868C1186.13 95.1106 1187.21 96.1845 1188.53 96.1845L1204.92 96.1845C1206.25 96.1845 1207.32 95.1106 1207.32 93.7868L1207.32 77.3977C1207.32 76.0719 1206.25 74.998 1204.92 74.998L1188.53 74.998C1187.21 74.998 1186.13 76.0719 1186.13 77.3987Z" fill="#F50057" fill-opacity="0.05"/>
<path d="M1208.24 99.7291L1208.24 116.118C1208.24 117.442 1209.32 118.516 1210.64 118.516L1227.03 118.516C1228.36 118.516 1229.43 117.442 1229.43 116.118L1229.43 99.7291C1229.43 98.4032 1228.36 97.3293 1227.03 97.3293L1210.64 97.3293C1209.32 97.3293 1208.24 98.4032 1208.24 99.7291Z" fill="#0888A8" fill-opacity="0.05"/>
<path d="M63.445 153.085H47.057C45.7331 153.085 44.6592 154.16 44.6592 155.483V171.874C44.6592 173.198 45.7331 174.272 47.057 174.272H63.446C64.7718 174.272 65.8457 173.198 65.8457 171.874V155.483C65.8457 154.16 64.7718 153.085 63.445 153.085Z" fill="#F50057" fill-opacity="0.05"/>
<path d="M18.7844 175.196H2.39533C1.07149 175.196 -0.00238037 176.271 -0.00238037 177.595V193.986C-0.00238037 195.31 1.07149 196.384 2.39533 196.384H18.7844C20.1102 196.384 21.1841 195.31 21.1841 193.986V177.595C21.1841 176.27 20.1102 175.196 18.7844 175.196Z" fill="#F50057" fill-opacity="0.05"/>
<path d="M41.1147 153.085H24.7266C23.4028 153.085 22.3289 154.16 22.3289 155.483V171.874C22.3289 173.198 23.4028 174.272 24.7266 174.272H41.1157C42.4415 174.272 43.5154 173.198 43.5154 171.874V155.482C43.5154 154.159 42.4415 153.085 41.1147 153.085Z" fill="#F50057" fill-opacity="0.05"/>
<path d="M18.7844 153.085H2.39533C1.07149 153.085 -0.00238037 154.16 -0.00238037 155.483V171.874C-0.00238037 173.198 1.07149 174.272 2.39533 174.272H18.7844C20.1102 174.272 21.1841 173.198 21.1841 171.874V155.482C21.1841 154.159 20.1102 153.085 18.7844 153.085Z" fill="#F50057" fill-opacity="0.05"/>
<path d="M397.405 141.047H381.017C379.693 141.047 378.619 142.122 378.619 143.446V159.837C378.619 161.161 379.693 162.235 381.017 162.235H397.406C398.732 162.235 399.806 161.161 399.806 159.837V143.446C399.806 142.122 398.732 141.047 397.405 141.047Z" fill="#0888A8" fill-opacity="0.05"/>
<path d="M352.744 163.158H336.355C335.032 163.158 333.958 164.233 333.958 165.557V181.948C333.958 183.272 335.032 184.346 336.355 184.346H352.744C354.07 184.346 355.144 183.272 355.144 181.948V165.557C355.144 164.232 354.07 163.158 352.744 163.158Z" fill="#0888A8" fill-opacity="0.05"/>
<path d="M375.075 141.047H358.687C357.363 141.047 356.289 142.122 356.289 143.446V159.837C356.289 161.161 357.363 162.235 358.687 162.235H375.076C376.402 162.235 377.475 161.161 377.475 159.837V143.445C377.475 142.121 376.402 141.047 375.075 141.047Z" fill="#0888A8" fill-opacity="0.05"/>
<path d="M352.744 141.047H336.355C335.032 141.047 333.958 142.122 333.958 143.446V159.837C333.958 161.161 335.032 162.235 336.355 162.235H352.744C354.07 162.235 355.144 161.161 355.144 159.837V143.445C355.144 142.121 354.07 141.047 352.744 141.047Z" fill="#0888A8" fill-opacity="0.05"/>
<path d="M1034.33 161.045H1017.94C1016.62 161.045 1015.54 162.12 1015.54 163.443V179.834C1015.54 181.158 1016.62 182.232 1017.94 182.232H1034.33C1035.66 182.232 1036.73 181.158 1036.73 179.834V163.443C1036.73 162.12 1035.66 161.045 1034.33 161.045Z" fill="#F50057" fill-opacity="0.05"/>
<path d="M989.668 183.156H973.279C971.955 183.156 970.881 184.231 970.881 185.555V201.946C970.881 203.27 971.955 204.344 973.279 204.344H989.668C990.994 204.344 992.068 203.27 992.068 201.946V185.555C992.068 184.23 990.994 183.156 989.668 183.156Z" fill="#F50057" fill-opacity="0.05"/>
<path d="M1012 161.045H995.61C994.286 161.045 993.213 162.12 993.213 163.443V179.834C993.213 181.158 994.286 182.232 995.61 182.232H1012C1013.33 182.232 1014.4 181.158 1014.4 179.834V163.442C1014.4 162.119 1013.33 161.045 1012 161.045Z" fill="#F50057" fill-opacity="0.05"/>
<path d="M989.668 161.045H973.279C971.955 161.045 970.881 162.12 970.881 163.443V179.834C970.881 181.158 971.955 182.232 973.279 182.232H989.668C990.994 182.232 992.068 181.158 992.068 179.834V163.442C992.068 162.119 990.994 161.045 989.668 161.045Z" fill="#0888A8" fill-opacity="0.05"/>
<path d="M243.244 253.084V269.472C243.244 270.796 244.319 271.869 245.643 271.869H262.034C263.358 271.869 264.432 270.796 264.432 269.472V253.083C264.432 251.757 263.358 250.683 262.034 250.683H245.643C244.319 250.683 243.244 251.757 243.244 253.084Z" fill="#F50057" fill-opacity="0.05"/>
<path d="M265.356 297.744V314.133C265.356 315.457 266.431 316.531 267.754 316.531H284.146C285.469 316.531 286.543 315.457 286.543 314.133V297.744C286.543 296.419 285.469 295.345 284.146 295.345H267.754C266.43 295.345 265.356 296.419 265.356 297.744Z" fill="#F50057" fill-opacity="0.05"/>
<path d="M243.244 275.414V291.802C243.244 293.126 244.319 294.2 245.643 294.2H262.034C263.358 294.2 264.432 293.126 264.432 291.802V275.413C264.432 274.087 263.358 273.013 262.034 273.013H245.642C244.318 273.013 243.244 274.087 243.244 275.414Z" fill="#F50057" fill-opacity="0.05"/>
<path d="M243.244 297.744V314.133C243.244 315.457 244.319 316.531 245.643 316.531H262.034C263.358 316.531 264.432 315.457 264.432 314.133V297.744C264.432 296.419 263.358 295.345 262.034 295.345H245.642C244.318 295.345 243.244 296.419 243.244 297.744Z" fill="#0888A8" fill-opacity="0.05"/>
<path d="M91.9866 468.334V484.722C91.9866 486.046 93.0614 487.12 94.3853 487.12H110.776C112.1 487.12 113.174 486.046 113.174 484.722V468.333C113.174 467.007 112.1 465.933 110.776 465.933H94.3853C93.0614 465.933 91.9866 467.007 91.9866 468.334Z" fill="#F50057" fill-opacity="0.05"/>
<path d="M114.098 512.995V529.384C114.098 530.707 115.173 531.781 116.497 531.781H132.888C134.211 531.781 135.285 530.707 135.285 529.384V512.995C135.285 511.669 134.211 510.595 132.888 510.595H116.497C115.172 510.595 114.098 511.669 114.098 512.995Z" fill="#F50057" fill-opacity="0.05"/>
<path d="M91.9866 490.664V507.052C91.9866 508.376 93.0614 509.45 94.3853 509.45H110.776C112.1 509.45 113.174 508.376 113.174 507.052V490.663C113.174 489.337 112.1 488.264 110.776 488.264H94.3843C93.0604 488.264 91.9866 489.337 91.9866 490.664Z" fill="#F50057" fill-opacity="0.05"/>
<path d="M91.9866 512.995V529.384C91.9866 530.707 93.0614 531.781 94.3853 531.781H110.776C112.1 531.781 113.174 530.707 113.174 529.384V512.995C113.174 511.669 112.1 510.595 110.776 510.595H94.3843C93.0604 510.595 91.9866 511.669 91.9866 512.995Z" fill="#F50057" fill-opacity="0.05"/>
<path d="M873.169 386.029V402.417C873.169 403.741 874.244 404.815 875.568 404.815H891.959C893.283 404.815 894.356 403.741 894.356 402.417V386.028C894.356 384.702 893.283 383.628 891.959 383.628H875.568C874.244 383.628 873.169 384.702 873.169 386.029Z" fill="#F50057" fill-opacity="0.05"/>
<path d="M895.28 430.689V447.078C895.28 448.402 896.355 449.476 897.679 449.476H914.07C915.394 449.476 916.468 448.402 916.468 447.078V430.689C916.468 429.364 915.394 428.29 914.07 428.29H897.679C896.354 428.29 895.28 429.364 895.28 430.689Z" fill="#F50057" fill-opacity="0.05"/>
<path d="M873.169 408.359V424.747C873.169 426.071 874.244 427.145 875.568 427.145H891.959C893.283 427.145 894.356 426.071 894.356 424.747V408.358C894.356 407.032 893.283 405.958 891.959 405.958H875.567C874.243 405.958 873.169 407.032 873.169 408.359Z" fill="#F50057" fill-opacity="0.05"/>
<path d="M873.169 430.689V447.078C873.169 448.402 874.244 449.476 875.568 449.476H891.959C893.283 449.476 894.356 448.402 894.356 447.078V430.689C894.356 429.364 893.283 428.29 891.959 428.29H875.567C874.243 428.29 873.169 429.364 873.169 430.689Z" fill="#F50057" fill-opacity="0.05"/>
<path d="M577.204 241.046V257.434C577.204 258.758 578.279 259.832 579.603 259.832H595.994C597.318 259.832 598.392 258.758 598.392 257.434V241.045C598.392 239.719 597.318 238.645 595.994 238.645H579.603C578.279 238.645 577.204 239.719 577.204 241.046Z" fill="#0888A8" fill-opacity="0.05"/>
<path d="M599.316 285.707V302.096C599.316 303.42 600.391 304.494 601.714 304.494H618.105C619.429 304.494 620.503 303.42 620.503 302.096V285.707C620.503 284.381 619.429 283.307 618.105 283.307H601.714C600.39 283.307 599.316 284.381 599.316 285.707Z" fill="#0888A8" fill-opacity="0.05"/>
<path d="M577.204 263.376V279.764C577.204 281.088 578.279 282.162 579.603 282.162H595.994C597.318 282.162 598.392 281.088 598.392 279.764V263.375C598.392 262.05 597.318 260.976 595.994 260.976H579.602C578.278 260.976 577.204 262.05 577.204 263.376Z" fill="#0888A8" fill-opacity="0.05"/>
<path d="M577.204 285.707V302.096C577.204 303.42 578.279 304.494 579.603 304.494H595.994C597.318 304.494 598.392 303.42 598.392 302.096V285.707C598.392 284.381 597.318 283.307 595.994 283.307H579.602C578.278 283.307 577.204 284.381 577.204 285.707Z" fill="#0888A8" fill-opacity="0.05"/>
<path d="M1214.13 261.044V277.432C1214.13 278.756 1215.2 279.829 1216.53 279.829H1232.92C1234.24 279.829 1235.32 278.756 1235.32 277.432V261.043C1235.32 259.717 1234.24 258.643 1232.92 258.643H1216.53C1215.2 258.643 1214.13 259.717 1214.13 261.044Z" fill="#0888A8" fill-opacity="0.05"/>
<path d="M1236.24 305.704V322.093C1236.24 323.417 1237.31 324.491 1238.64 324.491H1255.03C1256.35 324.491 1257.43 323.417 1257.43 322.093V305.704C1257.43 304.378 1256.35 303.305 1255.03 303.305H1238.64C1237.31 303.305 1236.24 304.378 1236.24 305.704Z" fill="#0888A8" fill-opacity="0.05"/>
<path d="M1214.13 283.374V299.762C1214.13 301.086 1215.2 302.16 1216.53 302.16H1232.92C1234.24 302.16 1235.32 301.086 1235.32 299.762V283.373C1235.32 282.047 1234.24 280.973 1232.92 280.973H1216.53C1215.2 280.973 1214.13 282.047 1214.13 283.374Z" fill="#F50057" fill-opacity="0.05"/>
<path d="M1214.13 305.704V322.093C1214.13 323.417 1215.2 324.491 1216.53 324.491H1232.92C1234.24 324.491 1235.32 323.417 1235.32 322.093V305.704C1235.32 304.378 1234.24 303.305 1232.92 303.305H1216.53C1215.2 303.305 1214.13 304.378 1214.13 305.704Z" fill="#F50057" fill-opacity="0.05"/>
<path d="M127.77 240.302H111.382C110.058 240.302 108.985 241.377 108.985 242.701V259.092C108.985 260.416 110.058 261.49 111.382 261.49H127.771C129.097 261.49 130.171 260.416 130.171 259.092V242.701C130.171 241.377 129.097 240.302 127.77 240.302Z" fill="#F50057" fill-opacity="0.05"/>
<path d="M127.77 218.191H111.382C110.058 218.191 108.985 219.266 108.985 220.59V236.981C108.985 238.304 110.058 239.378 111.382 239.378H127.771C129.097 239.378 130.171 238.304 130.171 236.981V220.59C130.171 219.265 129.097 218.191 127.77 218.191Z" fill="#0888A8" fill-opacity="0.05"/>
<path d="M127.77 196.08H111.382C110.058 196.08 108.985 197.154 108.985 198.478V214.869C108.985 216.193 110.058 217.267 111.382 217.267H127.771C129.097 217.267 130.171 216.193 130.171 214.869V198.477C130.171 197.153 129.097 196.08 127.77 196.08Z" fill="#F50057" fill-opacity="0.05"/>
<path d="M127.77 173.968H111.382C110.058 173.968 108.985 175.043 108.985 176.367V192.758C108.985 194.082 110.058 195.156 111.382 195.156H127.771C129.097 195.156 130.171 194.082 130.171 192.758V176.367C130.171 175.042 129.097 173.968 127.77 173.968Z" fill="#0888A8" fill-opacity="0.05"/>
<path d="M757.695 373.247H741.307C739.983 373.247 738.909 374.322 738.909 375.646V392.037C738.909 393.361 739.983 394.435 741.307 394.435H757.696C759.022 394.435 760.095 393.361 760.095 392.037V375.646C760.095 374.322 759.022 373.247 757.695 373.247Z" fill="#F50057" fill-opacity="0.05"/>
<path d="M757.695 351.136H741.307C739.983 351.136 738.909 352.211 738.909 353.535V369.926C738.909 371.25 739.983 372.323 741.307 372.323H757.696C759.022 372.323 760.095 371.25 760.095 369.926V353.535C760.095 352.21 759.022 351.136 757.695 351.136Z" fill="#F50057" fill-opacity="0.05"/>
<path d="M757.695 329.025H741.307C739.983 329.025 738.909 330.099 738.909 331.423V347.814C738.909 349.138 739.983 350.212 741.307 350.212H757.696C759.022 350.212 760.095 349.138 760.095 347.814V331.422C760.095 330.098 759.022 329.025 757.695 329.025Z" fill="#F50057" fill-opacity="0.05"/>
<path d="M757.695 306.913H741.307C739.983 306.913 738.909 307.988 738.909 309.312V325.703C738.909 327.027 739.983 328.101 741.307 328.101H757.696C759.022 328.101 760.095 327.027 760.095 325.703V309.312C760.095 307.987 759.022 306.913 757.695 306.913Z" fill="#F50057" fill-opacity="0.05"/>
<path d="M461.73 228.265H445.342C444.018 228.265 442.945 229.34 442.945 230.663V247.054C442.945 248.378 444.018 249.452 445.342 249.452H461.731C463.057 249.452 464.131 248.378 464.131 247.054V230.663C464.131 229.34 463.057 228.265 461.73 228.265Z" fill="#F50057" fill-opacity="0.05"/>
<path d="M461.73 206.153H445.342C444.018 206.153 442.945 207.228 442.945 208.552V224.943C442.945 226.267 444.018 227.341 445.342 227.341H461.731C463.057 227.341 464.131 226.267 464.131 224.943V208.552C464.131 207.227 463.057 206.153 461.73 206.153Z" fill="#F50057" fill-opacity="0.05"/>
<path d="M461.73 184.042H445.342C444.018 184.042 442.945 185.117 442.945 186.441V202.832C442.945 204.156 444.018 205.229 445.342 205.229H461.731C463.057 205.229 464.131 204.156 464.131 202.832V186.44C464.131 185.116 463.057 184.042 461.73 184.042Z" fill="#F50057" fill-opacity="0.05"/>
<path d="M461.73 161.931H445.342C444.018 161.931 442.945 163.005 442.945 164.329V180.72C442.945 182.044 444.018 183.118 445.342 183.118H461.731C463.057 183.118 464.131 182.044 464.131 180.72V164.329C464.131 163.004 463.057 161.931 461.73 161.931Z" fill="#F50057" fill-opacity="0.05"/>
<path d="M1098.65 248.262H1082.27C1080.94 248.262 1079.87 249.337 1079.87 250.661V267.052C1079.87 268.376 1080.94 269.45 1082.27 269.45H1098.65C1099.98 269.45 1101.05 268.376 1101.05 267.052V250.661C1101.05 249.337 1099.98 248.262 1098.65 248.262Z" fill="#0888A8" fill-opacity="0.05"/>
<path d="M1098.65 226.151H1082.27C1080.94 226.151 1079.87 227.226 1079.87 228.55V244.941C1079.87 246.264 1080.94 247.338 1082.27 247.338H1098.65C1099.98 247.338 1101.05 246.264 1101.05 244.941V228.55C1101.05 227.225 1099.98 226.151 1098.65 226.151Z" fill="#0888A8" fill-opacity="0.05"/>
<path d="M1098.65 204.04H1082.27C1080.94 204.04 1079.87 205.114 1079.87 206.438V222.829C1079.87 224.153 1080.94 225.227 1082.27 225.227H1098.65C1099.98 225.227 1101.05 224.153 1101.05 222.829V206.437C1101.05 205.113 1099.98 204.04 1098.65 204.04Z" fill="#0888A8" fill-opacity="0.05"/>
<path d="M1098.65 181.928H1082.27C1080.94 181.928 1079.87 183.003 1079.87 184.327V200.718C1079.87 202.042 1080.94 203.116 1082.27 203.116H1098.65C1099.98 203.116 1101.05 202.042 1101.05 200.718V184.327C1101.05 183.002 1099.98 181.928 1098.65 181.928Z" fill="#0888A8" fill-opacity="0.05"/>
<path d="M108.155 375.516V391.905C108.155 393.228 109.23 394.302 110.554 394.302H126.945C128.269 394.302 129.343 393.228 129.343 391.905V375.515C129.343 374.19 128.269 373.116 126.945 373.116H110.554C109.23 373.116 108.155 374.19 108.155 375.516Z" fill="#0888A8" fill-opacity="0.05"/>
<path d="M86.0438 375.516V391.905C86.0438 393.228 87.1187 394.302 88.4425 394.302H104.834C106.157 394.302 107.231 393.228 107.231 391.905V375.515C107.231 374.19 106.157 373.116 104.834 373.116H88.4425C87.1177 373.116 86.0438 374.19 86.0438 375.516Z" fill="#0888A8" fill-opacity="0.05"/>
<path d="M63.9324 375.516V391.905C63.9324 393.228 65.0073 394.302 66.3311 394.302H82.7222C84.046 394.302 85.1199 393.228 85.1199 391.905V375.515C85.1199 374.19 84.046 373.116 82.7222 373.116H66.3301C65.0063 373.116 63.9324 374.19 63.9324 375.516Z" fill="#0888A8" fill-opacity="0.05"/>
<path d="M41.8211 375.516V391.905C41.8211 393.228 42.896 394.302 44.2198 394.302H60.6109C61.9347 394.302 63.0086 393.228 63.0086 391.905V375.515C63.0086 374.19 61.9347 373.116 60.6109 373.116H44.2198C42.895 373.116 41.8211 374.19 41.8211 375.516Z" fill="#0888A8" fill-opacity="0.05"/>
<path d="M442.115 363.479V379.867C442.115 381.191 443.19 382.265 444.514 382.265H460.905C462.229 382.265 463.303 381.191 463.303 379.867V363.478C463.303 362.152 462.229 361.078 460.905 361.078H444.514C443.19 361.078 442.115 362.152 442.115 363.479Z" fill="#F50057" fill-opacity="0.05"/>
<path d="M420.004 363.479V379.867C420.004 381.191 421.079 382.265 422.402 382.265H438.794C440.117 382.265 441.191 381.191 441.191 379.867V363.478C441.191 362.152 440.117 361.078 438.794 361.078H422.402C421.078 361.078 420.004 362.152 420.004 363.479Z" fill="#F50057" fill-opacity="0.05"/>
<path d="M397.892 363.479V379.867C397.892 381.191 398.967 382.265 400.291 382.265H416.682C418.006 382.265 419.08 381.191 419.08 379.867V363.478C419.08 362.152 418.006 361.078 416.682 361.078H400.29C398.966 361.078 397.892 362.152 397.892 363.479Z" fill="#F50057" fill-opacity="0.05"/>
<path d="M375.781 363.479V379.867C375.781 381.191 376.856 382.265 378.18 382.265H394.571C395.895 382.265 396.969 381.191 396.969 379.867V363.478C396.969 362.152 395.895 361.078 394.571 361.078H378.18C376.855 361.078 375.781 362.152 375.781 363.479Z" fill="#F50057" fill-opacity="0.05"/>
<path d="M922.229 119.376V135.764C922.229 137.088 923.304 138.162 924.628 138.162H941.019C942.343 138.162 943.416 137.088 943.416 135.764V119.375C943.416 118.049 942.343 116.975 941.019 116.975H924.628C923.304 116.975 922.229 118.049 922.229 119.376Z" fill="#0888A8" fill-opacity="0.05"/>
<path d="M900.118 119.376V135.764C900.118 137.088 901.193 138.162 902.516 138.162H918.907C920.231 138.162 921.305 137.088 921.305 135.764V119.375C921.305 118.049 920.231 116.975 918.907 116.975H902.516C901.192 116.975 900.118 118.049 900.118 119.376Z" fill="#0888A8" fill-opacity="0.05"/>
<path d="M878.006 119.376V135.764C878.006 137.088 879.081 138.162 880.405 138.162H896.796C898.12 138.162 899.194 137.088 899.194 135.764V119.375C899.194 118.049 898.12 116.975 896.796 116.975H880.404C879.08 116.975 878.006 118.049 878.006 119.376Z" fill="#0888A8" fill-opacity="0.05"/>
<path d="M855.895 119.376V135.764C855.895 137.088 856.97 138.162 858.294 138.162H874.685C876.009 138.162 877.082 137.088 877.082 135.764V119.375C877.082 118.049 876.009 116.975 874.685 116.975H858.294C856.969 116.975 855.895 118.049 855.895 119.376Z" fill="#0888A8" fill-opacity="0.05"/>
<path d="M1079.04 383.477V399.865C1079.04 401.188 1080.11 402.262 1081.44 402.262H1097.83C1099.15 402.262 1100.23 401.188 1100.23 399.865V383.476C1100.23 382.15 1099.15 381.076 1097.83 381.076H1081.44C1080.11 381.076 1079.04 382.15 1079.04 383.477Z" fill="#F50057" fill-opacity="0.05"/>
<path d="M1056.93 383.477V399.865C1056.93 401.188 1058 402.262 1059.33 402.262H1075.72C1077.04 402.262 1078.11 401.188 1078.11 399.865V383.476C1078.11 382.15 1077.04 381.076 1075.72 381.076H1059.33C1058 381.076 1056.93 382.15 1056.93 383.477Z" fill="#F50057" fill-opacity="0.05"/>
<path d="M1034.82 383.477V399.865C1034.82 401.188 1035.89 402.262 1037.21 402.262H1053.61C1054.93 402.262 1056 401.188 1056 399.865V383.476C1056 382.15 1054.93 381.076 1053.61 381.076H1037.21C1035.89 381.076 1034.82 382.15 1034.82 383.477Z" fill="#F50057" fill-opacity="0.05"/>
<path d="M1012.7 383.477V399.865C1012.7 401.188 1013.78 402.262 1015.1 402.262H1031.49C1032.82 402.262 1033.89 401.188 1033.89 399.865V383.476C1033.89 382.15 1032.82 381.076 1031.49 381.076H1015.1C1013.78 381.076 1012.7 382.15 1012.7 383.477Z" fill="#F50057" fill-opacity="0.05"/>
<path d="M1329.02 172.095H1312.64C1311.31 172.095 1310.24 173.17 1310.24 174.494V190.885C1310.24 192.209 1311.31 193.283 1312.64 193.283H1329.02C1330.35 193.283 1331.42 192.209 1331.42 190.885V174.494C1331.42 173.17 1330.35 172.095 1329.02 172.095Z" fill="#0888A8" fill-opacity="0.05"/>
<path d="M1306.9 172.095H1290.51C1289.19 172.095 1288.11 173.17 1288.11 174.494V190.885C1288.11 192.209 1289.19 193.283 1290.51 193.283H1306.9C1308.23 193.283 1309.3 192.209 1309.3 190.885V174.494C1309.3 173.17 1308.23 172.095 1306.9 172.095Z" fill="#F50057" fill-opacity="0.05"/>
<path d="M1329.02 149.971H1312.64C1311.31 149.971 1310.24 151.046 1310.24 152.37V168.759C1310.24 170.085 1311.31 171.159 1312.64 171.159H1329.02C1330.35 171.159 1331.42 170.085 1331.42 168.759V152.37C1331.42 151.046 1330.35 149.971 1329.02 149.971Z" fill="#F50057" fill-opacity="0.05"/>
<path d="M1306.9 149.971H1290.51C1289.19 149.971 1288.11 151.046 1288.11 152.37V168.759C1288.11 170.085 1289.19 171.159 1290.51 171.159H1306.9C1308.23 171.159 1309.3 170.085 1309.3 168.759V152.37C1309.3 151.046 1308.23 149.971 1306.9 149.971Z" fill="#0888A8" fill-opacity="0.05"/>
<path d="M1392.29 29.9855H1375.9C1374.57 29.9855 1373.5 31.0604 1373.5 32.3842V48.7752C1373.5 50.0991 1374.57 51.1729 1375.9 51.1729H1392.29C1393.61 51.1729 1394.69 50.0991 1394.69 48.7752V32.3842C1394.69 31.0604 1393.61 29.9855 1392.29 29.9855Z" fill="#0888A8" fill-opacity="0.05"/>
<path d="M1369.96 52.0968H1353.57C1352.24 52.0968 1351.17 53.1717 1351.17 54.4955V70.8866C1351.17 72.2104 1352.24 73.2843 1353.57 73.2843H1369.96C1371.28 73.2843 1372.36 72.2104 1372.36 70.8866V54.4955C1372.36 53.1707 1371.28 52.0968 1369.96 52.0968Z" fill="#F50057" fill-opacity="0.05"/>
<path d="M1369.96 29.9855H1353.57C1352.24 29.9855 1351.17 31.0604 1351.17 32.3842V48.7752C1351.17 50.0991 1352.24 51.1729 1353.57 51.1729H1369.96C1371.28 51.1729 1372.36 50.0991 1372.36 48.7752V32.3832C1372.36 31.0594 1371.28 29.9855 1369.96 29.9855Z" fill="#F50057" fill-opacity="0.05"/>
<path d="M1347.63 52.0968H1331.24C1329.91 52.0968 1328.84 53.1717 1328.84 54.4955V70.8866C1328.84 72.2104 1329.91 73.2843 1331.24 73.2843H1347.63C1348.95 73.2843 1350.02 72.2104 1350.02 70.8866V54.4955C1350.02 53.1707 1348.95 52.0968 1347.63 52.0968Z" fill="#0888A8" fill-opacity="0.05"/>
<path d="M1296.3 390.942H1279.91C1278.59 390.942 1277.51 392.017 1277.51 393.341V409.732C1277.51 411.056 1278.59 412.13 1279.91 412.13H1296.3C1297.62 412.13 1298.7 411.056 1298.7 409.732V393.341C1298.7 392.017 1297.62 390.942 1296.3 390.942Z" fill="#F50057" fill-opacity="0.05"/>
<path d="M1251.64 413.054H1235.25C1233.92 413.054 1232.85 414.128 1232.85 415.452V431.843C1232.85 433.167 1233.92 434.241 1235.25 434.241H1251.64C1252.96 434.241 1254.04 433.167 1254.04 431.843V415.452C1254.04 414.127 1252.96 413.054 1251.64 413.054Z" fill="#F50057" fill-opacity="0.05"/>
<path d="M1273.97 390.942H1257.58C1256.26 390.942 1255.18 392.017 1255.18 393.341V409.732C1255.18 411.056 1256.26 412.13 1257.58 412.13H1273.97C1275.29 412.13 1276.37 411.056 1276.37 409.732V393.34C1276.37 392.016 1275.29 390.942 1273.97 390.942Z" fill="#F50057" fill-opacity="0.05"/>
<path d="M1251.64 390.942H1235.25C1233.92 390.942 1232.85 392.017 1232.85 393.341V409.732C1232.85 411.056 1233.92 412.13 1235.25 412.13H1251.64C1252.96 412.13 1254.04 411.056 1254.04 409.732V393.34C1254.04 392.016 1252.96 390.942 1251.64 390.942Z" fill="#F50057" fill-opacity="0.05"/>
<path d="M1392.29 248.959H1375.9C1374.57 248.959 1373.5 250.034 1373.5 251.358V267.749C1373.5 269.073 1374.57 270.147 1375.9 270.147H1392.29C1393.61 270.147 1394.69 269.073 1394.69 267.749V251.358C1394.69 250.034 1393.61 248.959 1392.29 248.959Z" fill="#F50057" fill-opacity="0.05"/>
<path d="M1347.63 271.071H1331.24C1329.91 271.071 1328.84 272.145 1328.84 273.469V289.86C1328.84 291.184 1329.91 292.258 1331.24 292.258H1347.63C1348.95 292.258 1350.02 291.184 1350.02 289.86V273.469C1350.02 272.144 1348.95 271.071 1347.63 271.071Z" fill="#F50057" fill-opacity="0.05"/>
<path d="M1369.96 248.959H1353.57C1352.24 248.959 1351.17 250.034 1351.17 251.358V267.749C1351.17 269.073 1352.24 270.147 1353.57 270.147H1369.96C1371.28 270.147 1372.36 269.073 1372.36 267.749V251.357C1372.36 250.033 1371.28 248.959 1369.96 248.959Z" fill="#F50057" fill-opacity="0.05"/>
<path d="M1347.63 248.959H1331.24C1329.91 248.959 1328.84 250.034 1328.84 251.358V267.749C1328.84 269.073 1329.91 270.147 1331.24 270.147H1347.63C1348.95 270.147 1350.02 269.073 1350.02 267.749V251.357C1350.02 250.033 1348.95 248.959 1347.63 248.959Z" fill="#0888A8" fill-opacity="0.05"/>
<path d="M1404.62 390.245H1388.23C1386.91 390.245 1385.83 391.32 1385.83 392.644V409.035C1385.83 410.359 1386.91 411.433 1388.23 411.433H1404.62C1405.94 411.433 1407.02 410.359 1407.02 409.035V392.644C1407.02 391.32 1405.94 390.245 1404.62 390.245Z" fill="#F50057" fill-opacity="0.05"/>
<path d="M1404.62 368.134H1388.23C1386.91 368.134 1385.83 369.209 1385.83 370.533V386.924C1385.83 388.247 1386.91 389.321 1388.23 389.321H1404.62C1405.94 389.321 1407.02 388.247 1407.02 386.924V370.533C1407.02 369.208 1405.94 368.134 1404.62 368.134Z" fill="#F50057" fill-opacity="0.05"/>
<path d="M1404.62 346.023H1388.23C1386.91 346.023 1385.83 347.097 1385.83 348.421V364.812C1385.83 366.136 1386.91 367.21 1388.23 367.21H1404.62C1405.94 367.21 1407.02 366.136 1407.02 364.812V348.42C1407.02 347.096 1405.94 346.023 1404.62 346.023Z" fill="#F50057" fill-opacity="0.05"/>
<path d="M1404.62 323.911H1388.23C1386.91 323.911 1385.83 324.986 1385.83 326.31V342.701C1385.83 344.025 1386.91 345.099 1388.23 345.099H1404.62C1405.94 345.099 1407.02 344.025 1407.02 342.701V326.31C1407.02 324.985 1405.94 323.911 1404.62 323.911Z" fill="#F50057" fill-opacity="0.05"/>
<path d="M1385 525.459V541.848C1385 543.171 1386.08 544.245 1387.4 544.245H1403.79C1405.12 544.245 1406.19 543.171 1406.19 541.848V525.458C1406.19 524.133 1405.12 523.059 1403.79 523.059H1387.4C1386.08 523.059 1385 524.133 1385 525.459Z" fill="#0888A8" fill-opacity="0.05"/>
<path d="M1362.89 525.459V541.848C1362.89 543.171 1363.97 544.245 1365.29 544.245H1381.68C1383 544.245 1384.08 543.171 1384.08 541.848V525.458C1384.08 524.133 1383 523.059 1381.68 523.059H1365.29C1363.96 523.059 1362.89 524.133 1362.89 525.459Z" fill="#0888A8" fill-opacity="0.05"/>
<path d="M1340.78 525.459V541.848C1340.78 543.171 1341.85 544.245 1343.18 544.245H1359.57C1360.89 544.245 1361.97 543.171 1361.97 541.848V525.458C1361.97 524.133 1360.89 523.059 1359.57 523.059H1343.18C1341.85 523.059 1340.78 524.133 1340.78 525.459Z" fill="#0888A8" fill-opacity="0.05"/>
<path d="M1318.67 525.459V541.848C1318.67 543.171 1319.74 544.245 1321.07 544.245H1337.46C1338.78 544.245 1339.86 543.171 1339.86 541.848V525.458C1339.86 524.133 1338.78 523.059 1337.46 523.059H1321.07C1319.74 523.059 1318.67 524.133 1318.67 525.459Z" fill="#0888A8" fill-opacity="0.05"/>
</svg>
